<svg width="33" height="32" viewBox="0 0 33 32" fill="none" xmlns="http://www.w3.org/2000/svg">
<g clip-path="url(#clip0_997_4196)">
<path d="M10.222 8.32248C10.0447 8.18156 9.78681 8.21098 9.64589 8.38823C9.64547 8.38872 9.64505 8.38928 9.6447 8.38977C9.50434 8.56549 9.53306 8.82174 9.70878 8.9621C9.70976 8.96287 9.71066 8.96364 9.71164 8.96434C9.88889 9.10526 10.1468 9.07583 10.2877 8.89858C10.4287 8.7214 10.3992 8.46347 10.222 8.32248Z" fill="#D9C9AE"/>
<path d="M32.0918 31.4422H31.3276V14.9276C31.343 7.67533 25.4763 1.78379 18.2241 1.76838C17.1092 1.76601 15.9986 1.90568 14.9189 2.18389C14.9922 1.95016 14.9681 1.6967 14.852 1.48103C14.6996 1.23175 14.4398 1.06774 14.1491 1.03755C13.8501 1.00562 13.5488 1.07116 13.2901 1.22442C13.2901 0.546659 12.8382 -1.52588e-05 12.286 -1.52588e-05C11.7337 -1.52588e-05 11.2847 0.557816 11.2819 1.22442C11.0232 1.07116 10.7218 1.00562 10.4228 1.03755C10.1312 1.06691 9.87008 1.23098 9.71716 1.48103C9.57513 1.73937 9.56369 2.04974 9.68648 2.31777C9.80844 2.59244 10.0158 2.82038 10.2778 2.96765C10.0164 3.11687 9.80928 3.34544 9.68648 3.62031C9.56376 3.88835 9.57513 4.19871 9.71716 4.45706C9.77671 4.55377 9.85439 4.63807 9.94588 4.70529C9.20849 5.29485 8.53624 5.96153 7.94047 6.69396C7.91628 6.72562 7.89829 6.7616 7.88748 6.79995C7.54267 6.90566 7.3044 7.22035 7.29618 7.58091C7.26745 7.6012 7.24283 7.6268 7.22366 7.65622C7.0591 7.89888 6.90848 8.15269 6.76066 8.4065C6.35588 8.09224 5.79687 8.06769 5.36608 8.34514C5.36608 7.66738 4.91424 7.11791 4.36198 7.11791C3.80973 7.11791 3.35789 7.67575 3.3551 8.34514C2.76937 8.00765 2.0693 8.1248 1.79317 8.60174C1.51704 9.07869 1.76807 9.74251 2.351 10.0828C1.75412 10.4231 1.5031 11.0869 1.77922 11.5666C2.05814 12.0436 2.75543 12.1579 3.34115 11.8232C3.34115 12.501 3.79578 13.0477 4.34804 13.0477C4.80818 13.0145 5.1912 12.6815 5.28798 12.2304C5.19594 12.6711 5.12621 13.1202 5.0788 13.5664V13.5804C5.04874 13.6153 5.02169 13.6526 4.99791 13.692C4.85497 13.9499 4.84256 14.2602 4.96444 14.5287C5.0864 14.8034 5.29377 15.0313 5.55574 15.1786C5.29335 15.3265 5.08584 15.5555 4.96444 15.8312C4.84346 16.0996 4.85483 16.4092 4.99512 16.668L5.00907 16.6847V31.4366H1.38316C1.22913 31.4366 1.10425 31.5615 1.10425 31.7155C1.10425 31.8695 1.22913 31.9944 1.38316 31.9944H10.4228C10.5769 31.9944 10.7017 31.8695 10.7017 31.7155C10.7017 31.5615 10.5769 31.4366 10.4228 31.4366H7.35475V18.1128C7.42036 18.1297 7.48786 18.1382 7.55557 18.1379C8.1134 18.1379 8.55688 17.58 8.55966 16.9134C8.81871 17.0657 9.12001 17.1303 9.41873 17.0975C9.90738 17.0634 10.2759 16.6397 10.2418 16.151C10.2339 16.0381 10.2045 15.9276 10.1551 15.8257C10.0337 15.55 9.82622 15.321 9.56376 15.173C9.82573 15.0257 10.0331 14.7978 10.1551 14.5231C10.3689 14.0807 10.1837 13.5487 9.74129 13.3348C9.64018 13.2859 9.53071 13.2566 9.41873 13.2485C9.12001 13.2157 8.81871 13.2803 8.55966 13.4326C8.59181 12.8943 8.25739 12.4019 7.74523 12.2332C7.90254 11.6592 8.10782 11.0994 8.35885 10.5597C8.57312 10.5483 8.78203 10.4882 8.96967 10.384C8.96967 11.059 9.42151 11.6085 9.97377 11.6085C10.526 11.6085 10.9779 11.0506 10.9807 10.384C11.5664 10.7187 12.2665 10.6044 12.5426 10.1274C12.6846 9.86907 12.6961 9.55871 12.5733 9.29067C12.4526 9.01538 12.2462 8.78646 11.9847 8.638C12.5677 8.29773 12.8215 7.63391 12.5426 7.15696C12.2654 6.76348 11.7565 6.60833 11.307 6.78043C11.6751 6.47522 12.0637 6.19568 12.4701 5.94368C12.4904 5.9289 12.5083 5.91105 12.5231 5.89068C12.6731 5.84564 12.8087 5.76196 12.9163 5.64803C12.9554 5.64642 12.9935 5.63596 13.0279 5.61735C13.265 5.48626 13.5104 5.3719 13.7559 5.26033C13.7948 13.2937 19.0297 20.3776 26.6976 22.7735C25.3871 25.4738 24.7189 28.4407 24.7451 31.4422H15.3847C15.2307 31.4422 15.1058 31.567 15.1058 31.7211C15.1058 31.8751 15.2307 32 15.3847 32H32.0918C32.2458 32 32.3707 31.8751 32.3707 31.7211C32.3707 31.567 32.2458 31.4422 32.0918 31.4422ZM9.24859 6.05803C9.06757 6.29944 8.96967 6.59306 8.96967 6.89478C8.85594 6.83091 8.73392 6.78307 8.60708 6.75253C8.80511 6.51824 9.01988 6.28396 9.24859 6.05803ZM5.04533 10.755C4.96026 10.6481 4.81034 10.6187 4.6911 10.6852C4.57082 10.7534 4.51859 10.8993 4.56838 11.0283C4.68169 11.2784 4.75505 11.5448 4.78594 11.8176C4.78594 12.183 4.57954 12.4898 4.33967 12.4898C4.0998 12.4898 3.89062 12.183 3.89062 11.8176C3.9236 11.5424 3.99981 11.2742 4.11654 11.0227C4.16458 10.8974 4.11654 10.7555 4.00218 10.6852C3.88364 10.618 3.7338 10.6463 3.64796 10.7522C3.48723 10.9789 3.29137 11.1784 3.06781 11.3435C2.75264 11.5248 2.38447 11.5025 2.26175 11.2933C2.13903 11.0841 2.30637 10.7466 2.62155 10.5625C2.87655 10.4545 3.14647 10.3859 3.42204 10.3589C3.57607 10.3589 3.70095 10.234 3.70095 10.08C3.70095 9.92597 3.57607 9.80108 3.42204 9.80108C3.14584 9.77563 2.87557 9.7059 2.62155 9.59469C2.30637 9.41339 2.14181 9.08148 2.26175 8.87229C2.38168 8.66311 2.75264 8.638 3.06781 8.82209C3.29137 8.98714 3.48723 9.1867 3.64796 9.41339C3.7338 9.51924 3.88364 9.54755 4.00218 9.48033C4.12246 9.4122 4.17469 9.26626 4.12491 9.13726C4.00818 8.88582 3.93197 8.61757 3.89898 8.34235C3.89898 7.97697 4.10538 7.66738 4.34804 7.66738C4.59069 7.66738 4.78594 7.98534 4.78594 8.35072C4.7526 8.62587 4.67639 8.89412 4.56001 9.14563C4.49656 9.286 4.55897 9.45125 4.69933 9.51464C4.81982 9.56909 4.962 9.53144 5.03975 9.42455C5.19964 9.19549 5.39669 8.99467 5.62268 8.83046C5.93786 8.64916 6.30882 8.67147 6.42875 8.88066C6.54868 9.08985 6.38412 9.42176 6.06895 9.60305C5.81492 9.71427 5.54466 9.784 5.26846 9.80945C5.13095 9.8303 5.02978 9.94926 5.03138 10.0884C5.02978 10.2275 5.13095 10.3464 5.26846 10.3673C5.54403 10.3943 5.81395 10.4629 6.06895 10.5709C6.38412 10.755 6.54868 11.0869 6.42875 11.2961C6.30882 11.5053 5.93786 11.5276 5.62268 11.3463C5.39969 11.1815 5.20473 10.9819 5.04533 10.755ZM6.80528 31.4254H5.5669V17.064C5.90495 17.1437 6.26063 17.0898 6.55984 16.9134C6.55817 17.1965 6.64393 17.4731 6.80528 17.7056V31.4254ZM8.0102 13.4409C7.97799 13.7159 7.90268 13.9842 7.78707 14.2358C7.72836 14.3782 7.7962 14.5413 7.93866 14.6C8.05399 14.6475 8.18682 14.6127 8.26401 14.5148C8.42327 14.2878 8.61824 14.0881 8.84137 13.9235C8.99582 13.8286 9.17691 13.7866 9.35736 13.8035C9.47074 13.8168 9.57262 13.8789 9.63628 13.9737C9.68858 14.0791 9.68858 14.2029 9.63628 14.3084C9.56139 14.4731 9.43518 14.6091 9.27648 14.6961C9.02218 14.8061 8.75198 14.8748 8.47599 14.8997C8.32196 14.8997 8.19707 15.0245 8.19707 15.1786C8.19707 15.3326 8.32196 15.4575 8.47599 15.4575C8.75184 15.4829 9.02197 15.5517 9.27648 15.6611C9.43518 15.7481 9.56139 15.8841 9.63628 16.0488C9.68865 16.1552 9.68865 16.2799 9.63628 16.3863C9.57178 16.4797 9.47012 16.5407 9.35736 16.5536C9.17732 16.5697 8.9968 16.5287 8.84137 16.4365C8.61956 16.2693 8.42481 16.0689 8.26401 15.8424C8.16869 15.7214 7.99333 15.7006 7.87235 15.796C7.77438 15.8731 7.73958 16.006 7.78707 16.1213C7.90358 16.3736 7.97896 16.6429 8.0102 16.919C8.0102 17.2816 7.80659 17.5912 7.56394 17.5912C7.32128 17.5912 7.11767 17.2816 7.11767 16.919C7.14891 16.6429 7.22429 16.3736 7.3408 16.1213C7.38947 15.9938 7.33871 15.8499 7.22087 15.781C7.17861 15.756 7.1305 15.7425 7.08141 15.742C6.99704 15.7417 6.91706 15.7796 6.86386 15.8452C6.70397 16.0725 6.50915 16.273 6.2865 16.4393C5.97133 16.6206 5.60037 16.5983 5.48044 16.3891C5.42807 16.2827 5.42807 16.158 5.48044 16.0516C5.55532 15.8869 5.68153 15.7508 5.84024 15.6639C6.09475 15.5545 6.36488 15.4857 6.64072 15.4603C6.79476 15.4603 6.91964 15.3354 6.91964 15.1814C6.91964 15.0273 6.79476 14.9025 6.64072 14.9025C6.36474 14.8776 6.09454 14.8089 5.84024 14.6988C5.68153 14.6119 5.55532 14.4759 5.48044 14.3111C5.42814 14.2057 5.42814 14.0819 5.48044 13.9765C5.5441 13.8817 5.64597 13.8196 5.75935 13.8063C5.93981 13.7894 6.1209 13.8314 6.27534 13.9262C6.49848 14.0909 6.69344 14.2906 6.8527 14.5175C6.94802 14.6385 7.12339 14.6594 7.24437 14.564C7.34234 14.4868 7.37713 14.354 7.32958 14.2386C7.21355 13.9872 7.13824 13.7189 7.10644 13.4437C7.08204 13.1717 7.22261 12.9114 7.46346 12.7827C7.49121 12.7785 7.51938 12.7785 7.54713 12.7827C7.80659 12.766 8.0102 13.0756 8.0102 13.4409ZM7.15393 12.3197C6.77077 12.5587 6.54422 12.984 6.55984 13.4354C6.3008 13.2831 5.9995 13.2185 5.70078 13.2513H5.67847C5.73174 12.8322 5.80621 12.4161 5.9016 12.0045C6.29271 12.0703 6.6857 11.8985 6.90291 11.5666C7.18182 11.0869 6.92801 10.4231 6.34507 10.0828C6.73235 9.87521 6.98609 9.48354 7.01726 9.04522C7.03239 9.03093 7.04473 9.01391 7.05352 8.99502C7.19856 8.73284 7.35196 8.4846 7.50815 8.23358L7.51094 8.24473C7.62983 8.41173 7.78295 8.55147 7.96 8.65474C7.70026 8.79838 7.49309 9.02116 7.36869 9.29067C7.24597 9.55871 7.25734 9.86907 7.39938 10.1274C7.49198 10.283 7.63164 10.4051 7.79822 10.4761C7.52977 11.0705 7.31417 11.6875 7.15393 12.3197ZM12.0628 7.45261C12.1856 7.6618 12.0182 7.99371 11.703 8.175C11.4486 8.28455 11.1784 8.35323 10.9026 8.37861C10.7485 8.37861 10.6236 8.5035 10.6236 8.65753C10.6236 8.81156 10.7485 8.93644 10.9026 8.93644C11.1784 8.96183 11.4486 9.03051 11.703 9.14005C11.8498 9.22673 11.9666 9.35614 12.0377 9.51101C12.0889 9.61769 12.0889 9.74181 12.0377 9.8485C11.915 10.0577 11.5469 10.08 11.2317 9.8987C11.0085 9.73205 10.8128 9.53165 10.6515 9.30461C10.5562 9.18363 10.3808 9.16278 10.2599 9.25817C10.1619 9.33536 10.1271 9.4682 10.1747 9.58353C10.2912 9.83595 10.3675 10.1052 10.4006 10.3812C10.4006 10.7466 10.1942 11.0534 9.95152 11.0534C9.70887 11.0534 9.52757 10.7438 9.52757 10.3784C9.56041 10.1027 9.63572 9.83358 9.7507 9.58074C9.79938 9.45327 9.74861 9.30929 9.63077 9.24046C9.51223 9.17101 9.36071 9.19821 9.27376 9.30461C9.11122 9.53151 8.91459 9.73191 8.69082 9.8987C8.37565 10.08 8.00469 10.0577 7.88476 9.8485C7.83407 9.74174 7.83407 9.61776 7.88476 9.51101C7.96076 9.34708 8.08669 9.21132 8.24456 9.12332C8.499 9.01377 8.7692 8.94509 9.04505 8.91971C9.19908 8.91971 9.32396 8.79482 9.32396 8.64079C9.32396 8.48676 9.19908 8.36188 9.04505 8.36188C8.76913 8.34214 8.49809 8.27904 8.24177 8.175C8.0839 8.08701 7.95797 7.95124 7.88197 7.78731C7.82772 7.67839 7.82772 7.55037 7.88197 7.44146L7.88476 7.45261C8.00469 7.24064 8.37565 7.21832 8.69082 7.40241C8.91382 7.56718 9.10878 7.76681 9.26818 7.99371C9.35437 8.10109 9.50596 8.12947 9.62519 8.06065C9.74443 7.99162 9.79533 7.84588 9.74513 7.71758C9.63063 7.46551 9.55539 7.19747 9.52199 6.92267C9.52199 6.55729 9.72839 6.2477 9.96826 6.2477C10.2081 6.2477 10.3978 6.52661 10.4145 6.87805C10.4019 6.92365 10.4019 6.9719 10.4145 7.0175C10.3668 7.25751 10.2948 7.49208 10.1998 7.71758C10.15 7.84658 10.2022 7.99252 10.3225 8.06065C10.441 8.12787 10.5909 8.09956 10.6767 7.99371C10.8365 7.76618 11.0325 7.56648 11.2568 7.40241C11.572 7.21832 11.9401 7.24343 12.0628 7.45261ZM10.8775 6.39831C10.7535 5.99151 10.3899 5.70451 9.9654 5.67871C9.76144 5.67955 9.56411 5.75157 9.40757 5.88232C9.77957 5.5253 10.1726 5.19095 10.5846 4.88101C10.8298 4.87801 11.0699 4.8117 11.2819 4.68856C11.2714 5.08964 11.4476 5.47287 11.7588 5.72612C11.4537 5.93496 11.1595 6.15935 10.8775 6.39831ZM13.2761 4.85033C13.2837 4.79671 13.2883 4.74267 13.2901 4.68856C13.3436 4.71743 13.3985 4.74343 13.4546 4.76665L13.2761 4.85033ZM13.5411 4.20603C13.3181 4.04126 13.1231 3.84163 12.9637 3.61473C12.8684 3.49375 12.6931 3.47297 12.5721 3.56829C12.4741 3.64548 12.4393 3.77832 12.4869 3.89365C12.6036 4.14488 12.6789 4.41327 12.71 4.68856C12.71 5.05394 12.5064 5.36074 12.2637 5.36074C12.0211 5.36074 11.8175 5.05394 11.8175 4.68856C11.8486 4.41327 11.9239 4.14488 12.0406 3.89365C12.096 3.74994 12.0245 3.58851 11.8808 3.53301C11.849 3.52074 11.8152 3.51439 11.7812 3.51432C11.6968 3.51404 11.6169 3.55198 11.5637 3.61752C11.4034 3.84365 11.2085 4.04322 10.9863 4.20882C10.8309 4.301 10.6503 4.34201 10.4703 4.32597C10.2841 4.31823 10.1394 4.16099 10.1471 3.97481C10.1493 3.92077 10.1645 3.86813 10.1914 3.8212L10.2025 3.81562C10.2784 3.65294 10.4046 3.51899 10.5623 3.43351C10.8171 3.32501 11.0871 3.25633 11.3628 3.2299C11.5169 3.2299 11.6418 3.10501 11.6418 2.95098C11.6418 2.79695 11.5169 2.67207 11.3628 2.67207C11.0866 2.6471 10.8162 2.57744 10.5623 2.46567C10.4034 2.38046 10.2769 2.24519 10.2025 2.08077C10.1506 1.97429 10.1506 1.84975 10.2025 1.74328C10.2654 1.64817 10.3679 1.5866 10.4815 1.57593C10.6616 1.55815 10.8427 1.59922 10.9975 1.69307C11.2197 1.85868 11.4146 2.05824 11.5748 2.28437C11.6701 2.40535 11.8455 2.42613 11.9665 2.33081C12.0644 2.25362 12.0992 2.12079 12.0518 2.00546C11.9361 1.75381 11.8608 1.48556 11.8286 1.21055C11.8286 0.845169 12.0322 0.538362 12.2749 0.538362C12.5175 0.538362 12.7212 0.845169 12.7212 1.21055C12.6901 1.48584 12.6148 1.75423 12.498 2.00546C12.4393 2.14784 12.5072 2.31094 12.6496 2.36958C12.7649 2.41714 12.8978 2.38227 12.975 2.28437C13.1352 2.05824 13.3301 1.85868 13.5523 1.69307C13.7071 1.59922 13.8882 1.55815 14.0683 1.57593C14.1818 1.5866 14.2844 1.64817 14.3472 1.74328C14.3992 1.84975 14.3992 1.97429 14.3472 2.08077C14.2719 2.24449 14.1456 2.37948 13.9874 2.46567C13.7334 2.57689 13.4631 2.64662 13.1869 2.67207C13.0329 2.67207 12.908 2.79695 12.908 2.95098C12.908 3.10501 13.0329 3.2299 13.1869 3.2299C13.4625 3.25688 13.7324 3.3255 13.9874 3.43351C14.1457 3.51969 14.2719 3.65469 14.3472 3.81841C14.3996 3.92482 14.3996 4.04949 14.3472 4.1559C14.2272 4.36502 13.8563 4.38733 13.5411 4.20603ZM14.3109 5.06788C14.3125 5.05024 14.3125 5.03253 14.3109 5.01489C14.7434 4.84872 15.1859 4.70989 15.6358 4.5993V6.15565C15.6358 6.30969 15.7606 6.43457 15.9147 6.43457H15.9732C17.2454 6.16981 18.5548 6.13578 19.839 6.33416H19.8809C19.8957 6.33576 19.9106 6.33576 19.9255 6.33416H19.959C19.9829 6.32802 20.0056 6.31763 20.0259 6.30348L20.051 6.28675C20.0695 6.2728 20.0856 6.25586 20.0984 6.23654L20.1207 6.20865C20.1306 6.18912 20.138 6.16855 20.143 6.14729C20.1437 6.13613 20.1437 6.12497 20.143 6.11382L20.2909 4.53515C20.7062 4.60907 21.1169 4.70683 21.5209 4.82802L21.426 6.50151C21.426 6.50151 21.426 6.50151 21.426 6.52103C21.4247 6.53777 21.4247 6.5545 21.426 6.57124C21.4244 6.58979 21.4244 6.60847 21.426 6.62702C21.4324 6.64062 21.4399 6.65366 21.4484 6.66607C21.459 6.68371 21.4721 6.69968 21.4874 6.71349C21.4965 6.72422 21.508 6.7328 21.5209 6.73859C21.5389 6.75288 21.5586 6.76509 21.5795 6.77485C22.7466 7.17161 23.8378 7.76395 24.8065 8.52644C24.8552 8.56423 24.915 8.5848 24.9766 8.58501C25.0061 8.59059 25.0364 8.59059 25.0659 8.58501C25.1548 8.55538 25.2229 8.48307 25.2472 8.39256L25.5512 7.2769C25.8706 7.57722 26.1714 7.89672 26.4521 8.23358C26.4444 8.25171 26.4378 8.27032 26.4326 8.28936C25.8113 12.57 26.6988 16.9335 28.9428 20.6314V21.284L26.9904 22.2854C19.4228 19.9798 14.2671 12.9788 14.3109 5.06788ZM16.188 5.81817V4.47658C16.8428 4.354 17.5076 4.29236 18.1739 4.2925C18.7003 4.29243 19.2261 4.33064 19.747 4.40685L19.6242 5.73728C18.4813 5.59099 17.3228 5.61825 16.188 5.81817ZM21.9922 6.31185L22.0787 5.01768C23.1884 5.44916 24.2194 6.06075 25.13 6.82784L24.8511 7.82357C23.9747 7.1866 23.0121 6.67758 21.9922 6.31185ZM28.9707 31.4254H25.2974C25.2837 28.4181 25.9743 25.4492 27.314 22.7567L28.9707 21.9032V31.4254ZM28.9707 19.4711C27.2236 16.2097 26.5188 12.491 26.9514 8.81651C28.266 10.6458 28.9725 12.8422 28.9707 15.0949V19.4711ZM30.7697 31.4254H29.5285V21.616L30.7697 20.98V31.4254ZM30.7697 14.9276V20.3525L29.5285 20.9884V15.0949C29.5377 8.83004 24.4664 3.74401 18.2016 3.73488C17.4259 3.73376 16.6521 3.8122 15.8924 3.96896C15.8578 3.97042 15.8238 3.97795 15.7919 3.99127C15.513 4.05542 15.2202 4.12794 14.9385 4.21161C14.9859 4.00752 14.9673 3.79366 14.8855 3.60079C14.7627 3.32592 14.5556 3.09734 14.2942 2.94812C14.385 2.89576 14.47 2.83405 14.548 2.76404C14.614 2.80441 14.6938 2.8155 14.7683 2.79472C21.4689 0.913852 28.4256 4.82104 30.3064 11.5216C30.6175 12.6302 30.7753 13.7761 30.7753 14.9276H30.7697Z" fill="#D9C9AE"/>
<path d="M4.34667 10.4938C4.57211 10.4938 4.75486 10.311 4.75486 10.0856C4.75486 9.86014 4.57211 9.67738 4.34667 9.67738C4.12123 9.67738 3.93848 9.86014 3.93848 10.0856C3.93848 10.311 4.12123 10.4938 4.34667 10.4938Z" fill="#D9C9AE"/>
<path d="M7.81925 14.8534C7.81876 14.853 7.8182 14.8526 7.81772 14.8522C7.6404 14.7126 7.38358 14.7426 7.24315 14.9192C7.10223 15.0964 7.13165 15.3544 7.3089 15.4953C7.48616 15.6362 7.74408 15.6068 7.88501 15.4295C8.02593 15.2523 7.9965 14.9944 7.81925 14.8534Z" fill="#D9C9AE"/>
<path d="M12.5482 2.62981C12.371 2.48889 12.113 2.51831 11.9721 2.69556C11.9717 2.69605 11.9713 2.69661 11.9709 2.6971C11.8313 2.87442 11.8613 3.13123 12.0379 3.27166C12.2151 3.41258 12.4731 3.38316 12.614 3.20591C12.7549 3.02873 12.7255 2.7708 12.5482 2.62981Z" fill="#D9C9AE"/>
<path d="M27.9833 20.8796C24.8707 18.2392 23.0783 14.3625 23.0827 10.2808C23.0827 10.1268 22.9579 10.0019 22.8038 10.0019C22.6498 10.0019 22.5249 10.1268 22.5249 10.2808C22.5197 14.5257 24.3836 18.5576 27.6207 21.3036C27.7378 21.4037 27.9138 21.39 28.014 21.2729C28.1141 21.1558 28.1004 20.9798 27.9833 20.8796Z" fill="#D9C9AE"/>
<path d="M26.7032 20.9633C24.5354 19.6009 22.7879 17.6641 21.6548 15.3682C21.5905 15.2283 21.4249 15.1669 21.2849 15.2312C21.1448 15.2955 21.0836 15.4611 21.1478 15.6011C21.1502 15.6064 21.1528 15.6115 21.1555 15.6165C22.333 18.0045 24.1502 20.0186 26.4047 21.4347C26.4488 21.4632 26.5 21.4787 26.5525 21.4794C26.7066 21.4814 26.8331 21.3582 26.8351 21.2042C26.8365 21.1062 26.7863 21.0148 26.7032 20.9633Z" fill="#D9C9AE"/>
<path d="M9.16223 17.6944C9.09348 17.6657 9.01622 17.6657 8.94747 17.6944C8.87669 17.7202 8.81938 17.7735 8.78849 17.8422C8.50469 18.4806 8.4837 19.205 8.72991 19.8588C8.97264 20.5148 9.46493 21.0482 10.0994 21.3426C10.1681 21.3713 10.2454 21.3713 10.3142 21.3426C10.384 21.3153 10.4408 21.2624 10.4731 21.1948C11.0607 19.8656 10.4784 18.3106 9.16223 17.6944ZM10.0659 20.6872C9.69189 20.4412 9.40573 20.0828 9.2487 19.6636C9.09348 19.245 9.07493 18.788 9.1957 18.3582C9.96056 18.8633 10.3121 19.8043 10.0659 20.6872Z" fill="#D9C9AE"/>
<path d="M4.52665 14.7435C4.49604 14.7164 4.45985 14.6964 4.42066 14.6849C4.42066 14.6682 4.43461 14.657 4.44019 14.6403C4.45532 14.5668 4.44019 14.4905 4.39835 14.4283C3.60672 13.2162 1.99312 12.8561 0.76129 13.6166C0.69693 13.6566 0.651606 13.7211 0.635778 13.7952C0.61988 13.8682 0.633965 13.9446 0.674826 14.0071C1.05827 14.5903 1.65508 14.9999 2.33716 15.1479C2.49426 15.1802 2.6538 15.1988 2.81411 15.2037C2.70206 15.2884 2.59669 15.3817 2.49893 15.4826C2.01523 15.9938 1.75353 16.6757 1.77096 17.3792C1.77096 17.5333 1.89585 17.6581 2.04988 17.6581C3.50108 17.6007 4.64003 16.3936 4.61312 14.9415C4.61207 14.8665 4.5809 14.7952 4.52665 14.7435ZM1.31912 13.943C1.73136 13.7619 2.19052 13.717 2.63003 13.8147V13.8119C3.06234 13.909 3.45283 14.1404 3.74569 14.4729C2.90769 14.8428 1.9266 14.6286 1.31912 13.943ZM3.49187 16.4281V16.4253C3.18569 16.7499 2.78427 16.9687 2.34553 17.0501C2.46191 16.141 3.15153 15.4108 4.0525 15.2427C3.99539 15.6871 3.79917 16.1021 3.49187 16.4281Z" fill="#D9C9AE"/>
<path d="M8.04385 4.10841C8.00745 3.95871 7.85663 3.86687 7.70699 3.9032C7.7049 3.90369 7.70287 3.90425 7.70078 3.90481C7.02594 4.08408 6.44817 4.52065 6.09144 5.12088C6.09144 5.14319 6.06912 5.16829 6.05518 5.19061L5.85994 4.41243C5.85994 4.39849 5.84599 4.38733 5.84041 4.37338C6.50298 3.12614 6.07568 1.57851 4.867 0.84789C4.80361 0.808912 4.72733 0.796849 4.65502 0.81442C4.58202 0.832968 4.51968 0.880245 4.48209 0.945511C3.77107 2.1666 4.13847 3.73055 5.31884 4.50726C5.31619 4.52205 5.31619 4.53711 5.31884 4.55189L5.41925 4.94516C4.76631 4.19892 3.75322 3.87657 2.78908 4.10841C2.63937 4.14481 2.54754 4.29564 2.58386 4.44528C2.58435 4.44737 2.58491 4.44939 2.58547 4.45148C2.75979 5.13231 3.19713 5.71616 3.80154 6.07477C4.21294 6.32084 4.68326 6.45096 5.16265 6.45131C5.35029 6.44908 5.53723 6.4276 5.72048 6.38716C5.71142 6.63288 5.73582 6.87875 5.793 7.11792C5.81092 7.19043 5.85708 7.2527 5.9213 7.29084C5.9858 7.32961 6.06327 7.3407 6.13606 7.32152C7.54068 6.94847 8.38866 5.52022 8.04385 4.10841ZM4.0944 5.6034C3.70824 5.37825 3.40576 5.03365 3.23255 4.62162C3.67631 4.57671 4.12278 4.6744 4.5072 4.90054C4.89126 5.12743 5.19235 5.47155 5.36626 5.88232C4.92341 5.92722 4.47777 5.82946 4.0944 5.6034ZM5.44156 3.91038C5.09794 3.6254 4.85375 3.23869 4.74428 2.80588C4.63264 2.3737 4.6629 1.91697 4.83074 1.50334C5.53535 2.08802 5.78212 3.06053 5.44156 3.91038ZM6.28389 6.6856C6.24184 6.2401 6.34246 5.79279 6.57117 5.40816C6.79835 5.02437 7.14239 4.72328 7.55296 4.5491C7.63726 5.46095 7.12496 6.32342 6.28389 6.6856Z" fill="#D9C9AE"/>
<path d="M21.0718 29.8244H16.9801C16.8261 29.8244 16.7012 29.9493 16.7012 30.1034C16.7012 30.2574 16.8261 30.3823 16.9801 30.3823H21.0718C21.2258 30.3823 21.3507 30.2574 21.3507 30.1034C21.3507 29.9493 21.2258 29.8244 21.0718 29.8244Z" fill="#D9C9AE"/>
</g>
<defs>
<clipPath id="clip0_997_4196">
<rect width="32" height="32" fill="white" transform="translate(0.5)"/>
</clipPath>
</defs>
</svg>
