<svg width="33" height="32" viewBox="0 0 33 32" fill="none" xmlns="http://www.w3.org/2000/svg">
<g clip-path="url(#clip0_997_4241)">
<path d="M32.238 22.5534V17.83C32.2365 16.3814 31.0626 15.2075 29.6139 15.2059H27.5147V9.95774C27.5147 9.66791 27.2797 9.43292 26.9899 9.43292H23.8409C23.5511 9.43292 23.3161 9.66791 23.3161 9.95774V15.2059H18.5928V8.9081C18.5928 8.61828 18.3578 8.38329 18.0679 8.38329H14.919C14.6292 8.38329 14.3942 8.61828 14.3942 8.9081V15.2059H9.67084V9.95774C9.67084 9.66791 9.43585 9.43292 9.14602 9.43292H5.99711C5.70728 9.43292 5.47229 9.66791 5.47229 9.95774V15.2059H3.37302C1.92464 15.2075 0.750717 16.3814 0.748923 17.83V22.5534C0.730985 23.6796 1.33678 24.7239 2.32338 25.2677V30.9505H1.27374C0.983912 30.9505 0.748923 31.1855 0.748923 31.4753C0.748923 31.7651 0.983912 32.0001 1.27374 32.0001H31.7132C32.003 32.0001 32.238 31.7651 32.238 31.4753C32.238 31.1855 32.003 30.9505 31.7132 30.9505H30.6636V25.2756C31.6351 24.7124 32.2344 23.6761 32.238 22.5534ZM24.3658 10.4826H26.465V15.2059H24.3658V10.4826ZM15.4438 9.43292H17.5431V15.2059H15.4438V9.43292ZM6.52193 10.4826H8.6212V15.2059H6.52193V10.4826ZM1.79856 17.83C1.79856 16.9603 2.50353 16.2556 3.37302 16.2556H29.6139C30.4837 16.2556 31.1884 16.9603 31.1884 17.83V22.5534C31.1866 23.387 30.6946 24.1414 29.9325 24.4794C29.1391 24.8136 28.2227 24.6416 27.6046 24.0423C27.2105 23.6468 26.9896 23.1113 26.9899 22.5534V20.4541C26.9873 19.6615 26.5376 18.9386 25.828 18.5857L25.7959 18.5683C25.7119 18.5286 25.6253 18.4948 25.5366 18.4671C25.4843 18.4497 25.4364 18.4325 25.3844 18.4199C25.3172 18.4046 25.2493 18.3925 25.1809 18.3841C25.1348 18.3774 25.0907 18.3636 25.0438 18.36C25.0187 18.36 24.9946 18.3636 24.97 18.3625C24.9452 18.3615 24.918 18.3548 24.8906 18.3548C24.8324 18.3548 24.7763 18.3669 24.7186 18.3715C24.6607 18.3764 24.5995 18.3789 24.5405 18.3889C24.4498 18.4058 24.3601 18.4289 24.2725 18.4576C24.2251 18.4722 24.1769 18.4827 24.1308 18.5007C24.0329 18.5404 23.9383 18.5878 23.8479 18.6424C23.8148 18.6613 23.7797 18.6749 23.7471 18.6949C23.6247 18.7743 23.5106 18.8663 23.4071 18.9693C23.0117 19.3619 22.79 19.8968 22.7913 20.4541V21.5038C22.7913 22.6631 21.8516 23.603 20.692 23.603C19.5327 23.603 18.5928 22.6631 18.5928 21.5038V20.4541C18.5902 19.6615 18.1405 18.9386 17.4309 18.5857L17.3988 18.5683C17.3148 18.5286 17.2282 18.4948 17.1395 18.4671C17.0872 18.4497 17.0393 18.4325 16.9873 18.4199C16.9202 18.4046 16.8522 18.3925 16.7838 18.3841C16.7377 18.3774 16.6936 18.3636 16.6467 18.36C16.6216 18.36 16.5975 18.3636 16.5729 18.3625C16.5481 18.3615 16.5209 18.3548 16.4935 18.3548C16.4353 18.3548 16.3792 18.3669 16.3215 18.3715C16.2636 18.3764 16.2024 18.3789 16.1434 18.3889C16.053 18.4058 15.9635 18.4289 15.8759 18.4576C15.828 18.4722 15.7798 18.4827 15.7337 18.5007C15.6363 18.5404 15.542 18.5875 15.4518 18.6419C15.4182 18.6608 15.3826 18.6749 15.3501 18.6944C15.2276 18.7736 15.1135 18.8653 15.01 18.9683C14.6143 19.3612 14.3927 19.8965 14.3942 20.4541V23.603C14.3942 24.7623 13.4545 25.7023 12.2949 25.7023C11.1356 25.7023 10.1957 24.7623 10.1957 23.603V20.4541C10.1931 19.6615 9.74336 18.9386 9.03378 18.5857L9.00175 18.5683C8.91769 18.5286 8.83108 18.4948 8.74241 18.4671C8.69013 18.4497 8.64221 18.4325 8.59019 18.4199C8.52305 18.4046 8.45514 18.3925 8.38672 18.3841C8.3406 18.3774 8.29652 18.3636 8.24963 18.36C8.20299 18.3564 8.14892 18.3548 8.09638 18.3548C6.93707 18.3548 5.99711 19.2945 5.99711 20.4541V22.5534C5.99788 23.1095 5.77852 23.6433 5.3867 24.0379C4.86649 24.5386 4.13129 24.7472 3.42555 24.5942C3.29998 24.5676 3.17698 24.5297 3.05833 24.4805C2.81847 24.3746 2.59988 24.2262 2.41333 24.0423C2.0192 23.6468 1.7983 23.1113 1.79856 22.5534V17.83ZM3.37302 30.9505V25.6587C3.42555 25.6674 3.47808 25.6698 3.53061 25.6759L3.57085 25.6803C4.03006 25.7277 4.49415 25.6739 4.9303 25.5227C5.06356 25.4758 5.19374 25.4199 5.31956 25.3558C5.34647 25.3428 5.37209 25.3284 5.40002 25.3138C5.50176 25.2585 5.60068 25.1977 5.696 25.1316C5.7265 25.1109 5.75725 25.0914 5.78723 25.0693C6.5906 24.4848 7.06007 23.5466 7.04674 22.5534V20.4541C7.04623 20.1756 7.15719 19.9085 7.35477 19.7125C7.4073 19.6605 7.46496 19.6138 7.52697 19.5739C7.53799 19.5672 7.55004 19.5623 7.56106 19.5562C7.61257 19.5247 7.66638 19.4978 7.72224 19.4757C7.73864 19.4696 7.7553 19.4657 7.7717 19.4606C7.82295 19.4432 7.87549 19.4301 7.92904 19.4211C7.95416 19.417 7.98158 19.416 8.00618 19.4132C8.05026 19.4091 8.09459 19.4076 8.13892 19.4086C8.17198 19.4101 8.20504 19.4134 8.23758 19.4186C8.27704 19.4232 8.31625 19.4304 8.35469 19.4401C8.36776 19.4432 8.3798 19.448 8.39236 19.4516C8.84978 19.6185 9.15191 20.0559 9.14602 20.5428V23.603C9.14602 25.342 10.556 26.7519 12.2949 26.7519C14.0342 26.7519 15.4438 25.342 15.4438 23.603V20.4541C15.4438 20.0977 15.6253 19.7658 15.9251 19.5734C15.9341 19.5677 15.9446 19.5639 15.9535 19.5582C16.0068 19.5257 16.0627 19.4978 16.1209 19.4752C16.1357 19.4696 16.1509 19.4662 16.1655 19.4616C16.217 19.4442 16.2695 19.4304 16.3231 19.4206C16.3482 19.417 16.3756 19.4155 16.3987 19.4132C16.4427 19.4088 16.4873 19.4073 16.5319 19.4086C16.565 19.4101 16.5978 19.4134 16.6306 19.4186C16.67 19.4232 16.709 19.4304 16.7477 19.4401C16.7608 19.4432 16.7728 19.448 16.7854 19.4516C17.2443 19.6172 17.5485 20.0549 17.5431 20.5428V21.5038C17.5431 23.2427 18.9531 24.6527 20.692 24.6527C22.4313 24.6527 23.8409 23.2427 23.8409 21.5038V20.4541C23.8404 20.1756 23.9514 19.9085 24.149 19.7125C24.2015 19.6605 24.2592 19.6138 24.3212 19.5739C24.3322 19.5672 24.3442 19.5623 24.3558 19.5554C24.407 19.5244 24.4608 19.4978 24.5164 19.4757C24.5328 19.4696 24.55 19.4657 24.569 19.4606C24.6195 19.4432 24.6712 19.4301 24.7238 19.4211C24.7489 19.417 24.7763 19.416 24.8009 19.4132C24.845 19.4091 24.8893 19.4076 24.9336 19.4086C24.9667 19.4101 24.9997 19.4134 25.0323 19.4186C25.0718 19.4232 25.111 19.4304 25.1494 19.4401C25.1625 19.4432 25.1745 19.448 25.1871 19.4516C25.6442 19.6187 25.9464 20.0561 25.9402 20.5428V22.5534C25.9394 23.3898 26.271 24.1924 26.8625 24.7844C26.9665 24.8859 27.0775 24.9802 27.1946 25.0668C27.2287 25.0914 27.2638 25.1134 27.2997 25.137C27.3878 25.1972 27.477 25.2531 27.5698 25.3038C27.6067 25.3238 27.6433 25.3433 27.6805 25.3615C27.7863 25.414 27.8947 25.4606 28.0054 25.5011C28.0274 25.5091 28.049 25.5191 28.0715 25.5265C28.3596 25.6247 28.6599 25.6813 28.9638 25.6944H28.9674C29.1137 25.7003 29.2603 25.6959 29.4061 25.6813L29.4587 25.6754C29.5112 25.6698 29.5637 25.6674 29.6162 25.6587V30.9505H3.37302Z" fill="#D9C9AE"/>
<path d="M16.4935 7.33365C17.9421 7.33186 19.116 6.15794 19.1176 4.70956C19.1176 3.44979 17.2917 0.742413 16.9255 0.212726C16.8223 0.0787021 16.6629 3.05176e-05 16.4935 3.05176e-05C16.3243 3.05176e-05 16.1647 0.0787021 16.0617 0.212726C15.6952 0.742413 13.8694 3.44979 13.8694 4.70956C13.8712 6.15794 15.0451 7.33186 16.4935 7.33365ZM16.4935 1.45968C17.2487 2.64001 18.0679 4.13631 18.0679 4.70956C18.0679 5.57905 17.3632 6.28402 16.4935 6.28402C15.624 6.28402 14.919 5.57905 14.919 4.70956C14.919 4.13631 15.7383 2.64001 16.4935 1.45968Z" fill="#D9C9AE"/>
<path d="M25.4154 8.38329C26.864 8.3815 28.0379 7.20757 28.0394 5.7592C28.0394 4.49943 26.2136 1.79205 25.8474 1.26236C25.7441 1.12834 25.5847 1.04967 25.4154 1.04967C25.2462 1.04967 25.0866 1.12834 24.9836 1.26236C24.6171 1.79205 22.7913 4.49943 22.7913 5.7592C22.7931 7.20757 23.967 8.3815 25.4154 8.38329ZM25.4154 2.50932C26.1705 3.68965 26.9898 5.18595 26.9898 5.7592C26.9898 6.62868 26.2851 7.33365 25.4154 7.33365C24.5459 7.33365 23.8409 6.62868 23.8409 5.7592C23.8409 5.18595 24.6602 3.68965 25.4154 2.50932Z" fill="#D9C9AE"/>
<path d="M7.5716 8.38329C9.02024 8.3815 10.1942 7.20757 10.1957 5.7592C10.1957 4.49943 8.36985 1.79205 8.00366 1.26236C7.90038 1.12834 7.74099 1.04967 7.5716 1.04967C7.40247 1.04967 7.24282 1.12834 7.13981 1.26236C6.77336 1.79205 4.94751 4.49943 4.94751 5.7592C4.9493 7.20757 6.12323 8.3815 7.5716 8.38329ZM7.5716 2.50932C8.3268 3.68965 9.14606 5.18595 9.14606 5.7592C9.14606 6.62868 8.44135 7.33365 7.5716 7.33365C6.70212 7.33365 5.99715 6.62868 5.99715 5.7592C5.99715 5.18595 6.81641 3.68965 7.5716 2.50932Z" fill="#D9C9AE"/>
</g>
<defs>
<clipPath id="clip0_997_4241">
<rect width="32" height="32" fill="white" transform="translate(0.5)"/>
</clipPath>
</defs>
</svg>
