<svg width="12" height="11" viewBox="0 0 12 11" fill="none" xmlns="http://www.w3.org/2000/svg">
<path fill-rule="evenodd" clip-rule="evenodd" d="M5.54651 0C2.50894 0 0.0465088 2.46243 0.0465088 5.5C0.0465088 8.53757 2.50894 11 5.54651 11C8.58407 11 11.0465 8.53757 11.0465 5.5C11.0465 2.46243 8.58407 0 5.54651 0ZM5.58522 4.53846L5.57181 4.32039C5.53157 3.7552 5.88477 3.23896 6.44362 3.0387C6.64928 2.96749 6.998 2.95859 7.22601 3.0209C7.31543 3.0476 7.48532 3.13661 7.60603 3.21671L7.8251 3.36357L8.06652 3.28792C8.20065 3.24786 8.37948 3.18111 8.45996 3.13661C8.53596 3.09655 8.60302 3.0743 8.60302 3.08765C8.60302 3.16331 8.4376 3.42143 8.29901 3.56384C8.11123 3.7641 8.16488 3.7819 8.5449 3.64839C8.77291 3.57274 8.77738 3.57274 8.73267 3.65729C8.70585 3.7018 8.56726 3.85756 8.41972 3.99997C8.16935 4.24474 8.15594 4.27144 8.15594 4.47616C8.15594 4.79213 8.00393 5.45078 7.85192 5.81126C7.57026 6.48771 6.9667 7.18641 6.36315 7.53798C5.51369 8.03197 4.38258 8.15658 3.43029 7.86731C3.11287 7.7694 2.56743 7.52018 2.56743 7.47568C2.56743 7.46233 2.73285 7.44453 2.93403 7.44008C3.35429 7.43118 3.77455 7.31547 4.13221 7.11075L4.37364 6.96834L4.09644 6.87489C3.70301 6.74138 3.34982 6.4343 3.2604 6.14503C3.23358 6.05157 3.24252 6.04712 3.49289 6.04712L3.75219 6.04267L3.53312 5.94032C3.27382 5.81126 3.03686 5.59319 2.92062 5.37067C2.83568 5.21046 2.72838 4.80548 2.75967 4.77433C2.76861 4.76098 2.8625 4.78768 2.9698 4.82328C3.27829 4.93454 3.31852 4.90784 3.13969 4.72092C2.80438 4.3827 2.70155 3.87981 2.8625 3.40363L2.93851 3.19001L3.23358 3.47928C3.83714 4.06227 4.548 4.4094 5.36168 4.51176L5.58522 4.53846Z" fill="#0A0A0C"/>
</svg>
