<svg width="14" height="11" viewBox="0 0 14 11" fill="none" xmlns="http://www.w3.org/2000/svg">
<path d="M12.4064 10.3022C12.4344 10.3025 12.4621 10.297 12.4879 10.2863C12.5137 10.2755 12.537 10.2596 12.5563 10.2395C12.5756 10.2194 12.5906 10.1957 12.6002 10.1696C12.6099 10.1436 12.614 10.1159 12.6124 10.0882C12.6124 9.93651 12.5199 9.86401 12.3303 9.86401H12.0238V10.6584H12.1391V10.3121H12.2807L12.284 10.3163L12.5038 10.6584H12.6271L12.3905 10.3044L12.4064 10.3022ZM12.2731 10.2226H12.1394V9.95404H12.3088C12.3963 9.95404 12.4961 9.9682 12.4961 10.0817C12.4961 10.2122 12.3951 10.2226 12.2724 10.2226" fill="#0A0A0C"/>
<path d="M9.39952 9.30686H7.76498V6.77229C7.76498 6.1679 7.75408 5.38986 6.91484 5.38986C6.06351 5.38986 5.93326 6.04837 5.93326 6.72829V9.30669H4.2987V4.09459H5.86787V4.80688H5.88984C6.04687 4.54102 6.2738 4.32231 6.54644 4.17405C6.81908 4.02579 7.12723 3.95352 7.43807 3.96495C9.09476 3.96495 9.40021 5.04391 9.40021 6.44759L9.39952 9.30686ZM2.45438 3.38213C2.26677 3.38217 2.08337 3.32712 1.92736 3.22394C1.77135 3.12077 1.64976 2.9741 1.57793 2.8025C1.50611 2.63089 1.48728 2.44205 1.52385 2.25986C1.56042 2.07766 1.65073 1.9103 1.78337 1.77892C1.916 1.64755 2.085 1.55807 2.26899 1.52179C2.45299 1.48552 2.64371 1.50409 2.81705 1.57514C2.99039 1.6462 3.13855 1.76655 3.24281 1.92099C3.34706 2.07542 3.40273 2.257 3.40276 2.44276C3.40279 2.56609 3.37827 2.68823 3.33062 2.80219C3.28297 2.91615 3.21313 3.0197 3.12506 3.10693C3.037 3.19416 2.93243 3.26336 2.81736 3.31058C2.70228 3.3578 2.57895 3.38211 2.45438 3.38213ZM3.27165 9.30686H1.6354V4.09459H3.27165V9.30686ZM10.2144 0.00074418H0.814043C0.60068 -0.0016399 0.395081 0.0799465 0.24244 0.227575C0.089799 0.375204 0.00260397 0.576796 0 0.788054V10.1345C0.00251484 10.3458 0.0896587 10.5476 0.242294 10.6953C0.39493 10.8431 0.600575 10.9249 0.814043 10.9226H10.2144C10.4283 10.9253 10.6345 10.8438 10.7878 10.696C10.941 10.5482 11.0287 10.3462 11.0317 10.1345V0.78738C11.0286 0.575703 10.9409 0.373881 10.7876 0.226256C10.6344 0.078631 10.4282 -0.00272222 10.2144 6.9551e-05" fill="#0A0A0C"/>
<path d="M12.2871 9.5105C12.0883 9.51239 11.8982 9.59219 11.7586 9.73243C11.619 9.87267 11.5412 10.062 11.5421 10.2589C11.5431 10.4558 11.6228 10.6443 11.7637 10.7832C11.9047 10.9221 12.0955 11.0001 12.2944 11.0001C12.4932 11.0001 12.684 10.9221 12.825 10.7832C12.9659 10.6443 13.0456 10.4558 13.0466 10.2589C13.0475 10.062 12.9697 9.87267 12.8301 9.73243C12.6905 9.59219 12.5005 9.51239 12.3016 9.5105H12.2871ZM12.2871 10.9148C12.1567 10.917 12.0285 10.8808 11.9189 10.8108C11.8092 10.7409 11.723 10.6403 11.671 10.5218C11.6191 10.4033 11.6038 10.2722 11.6272 10.1451C11.6505 10.018 11.7113 9.9006 11.802 9.80775C11.8927 9.7149 12.0092 9.65077 12.1367 9.62347C12.2642 9.59616 12.397 9.60691 12.5184 9.65435C12.6397 9.70178 12.7441 9.78378 12.8184 9.88998C12.8927 9.99617 12.9335 10.1218 12.9357 10.2509C12.9357 10.2546 12.9357 10.2582 12.9357 10.2619C12.9393 10.4313 12.8748 10.5953 12.7565 10.7176C12.6381 10.84 12.4754 10.9108 12.3043 10.9145H12.2873" fill="#0A0A0C"/>
</svg>
