<svg width="12" height="11" viewBox="0 0 12 11" fill="none" xmlns="http://www.w3.org/2000/svg">
<path fill-rule="evenodd" clip-rule="evenodd" d="M5.55106 0C2.50719 0 0.0465088 2.52082 0.0465088 5.63942C0.0465088 8.13229 1.62315 10.2424 3.81037 10.9893C4.08383 11.0454 4.18399 10.868 4.18399 10.7187C4.18399 10.5879 4.17498 10.1398 4.17498 9.67286C2.64375 10.009 2.32488 9.0006 2.32488 9.0006C2.0788 8.34702 1.71419 8.17904 1.71419 8.17904C1.21302 7.83357 1.7507 7.83357 1.7507 7.83357C2.30663 7.87093 2.59834 8.41244 2.59834 8.41244C3.09038 9.27136 3.88327 9.02867 4.20225 8.87925C4.24777 8.51511 4.39368 8.26303 4.5486 8.12301C3.32734 7.99227 2.04241 7.50678 2.04241 5.34059C2.04241 4.72437 2.26099 4.2202 2.60735 3.8281C2.55271 3.68808 2.36127 3.10909 2.66211 2.33417C2.66211 2.33417 3.12689 2.18475 4.17487 2.91304C4.62354 2.7896 5.08625 2.7268 5.55106 2.72627C6.01584 2.72627 6.48963 2.7917 6.92714 2.91304C7.97523 2.18475 8.44001 2.33417 8.44001 2.33417C8.74085 3.10909 8.5493 3.68808 8.49465 3.8281C8.85014 4.2202 9.05971 4.72437 9.05971 5.34059C9.05971 7.50678 7.77478 7.98287 6.54439 8.12301C6.74495 8.30038 6.91801 8.63645 6.91801 9.16869C6.91801 9.92494 6.909 10.5319 6.909 10.7185C6.909 10.868 7.00928 11.0454 7.28263 10.9894C9.46984 10.2423 11.0465 8.13229 11.0465 5.63942C11.0555 2.52082 8.58581 0 5.55106 0Z" fill="#0A0A0C"/>
</svg>
