<svg width="20" height="18" viewBox="0 0 20 18" fill="none" xmlns="http://www.w3.org/2000/svg">
<path d="M6.42381 17.2179C3.8892 17.1888 0.946714 15.6447 0.16011 12.2069C-0.0146904 11.4786 -0.0146904 11.0125 0.0144431 7.42904C0.0144431 6.1763 0.0144431 4.51569 0.0144431 2.35981H2.72386C2.72386 3.55429 2.69472 4.60309 2.69472 5.53536C2.66559 10.8085 2.66559 12.0613 3.7144 13.2557C4.4136 14.0132 5.375 14.4502 6.42381 14.4502C7.47261 14.4502 8.43402 14.0132 9.13322 13.2557C10.182 12.0613 10.182 10.8085 10.1529 5.53536C10.1529 4.60309 10.1238 6.4385 10.1238 5.24403H11.4785H12.8332C12.8332 7.3999 12.8332 6.14717 12.8332 7.42904C12.8623 11.0125 12.8623 11.4786 12.6875 12.2361C11.9009 15.6447 8.98755 17.1888 6.42381 17.2179Z" fill="white"/>
<path d="M16.6787 11.1581L18.8637 12.877C18.5433 13.1975 18.1354 13.5179 17.4945 13.8675L17.2031 14.0423C16.1835 14.5667 15.0181 14.8581 13.8528 14.8581C10.5607 14.8581 7.64735 12.6439 6.71508 9.49751L6.68595 9.26445C6.51115 8.68178 6.45288 8.04084 6.45288 7.42904C6.45288 3.32122 9.7741 0 13.8528 0C15.1055 0 16.3291 0.320468 17.4071 0.903138L17.4945 0.932271C18.485 1.51494 19.359 2.27241 19.9999 3.20468L15.7173 8.71091L13.6197 7.02117L16.3874 3.46688L15.6882 3.08815C15.3677 2.88421 14.6103 2.68028 13.8528 2.68028C11.2599 2.68028 9.13316 4.80702 9.13316 7.42904C9.13316 9.67232 10.7355 11.6243 12.9788 12.0613C13.1536 12.0904 13.4741 12.1195 13.5615 12.1195C13.7071 12.1487 13.8819 12.1487 14.0276 12.1487C14.989 12.0904 15.8921 11.7699 16.6787 11.1581Z" fill="white"/>
</svg>
