<svg width="33" height="32" viewBox="0 0 33 32" fill="none" xmlns="http://www.w3.org/2000/svg">
<g clip-path="url(#clip0_997_4372)">
<path d="M22.3192 20.0679C22.2194 19.7909 21.9139 19.6473 21.6369 19.7471C21.3599 19.8469 21.2163 20.1524 21.3161 20.4294C21.3186 20.4362 21.3212 20.4429 21.3239 20.4496C21.8101 21.7185 21.8453 22.6888 21.4199 23.1153C20.9038 23.6303 19.6185 23.4693 17.9807 22.6856C15.7881 21.5471 13.7951 20.0598 12.0795 18.2819C7.90355 14.1054 6.18049 10.0073 7.24621 8.94159C7.58627 8.67302 8.0283 8.56986 8.45214 8.66009C8.74576 8.68169 9.00132 8.46111 9.02291 8.16749C9.04377 7.88366 8.83805 7.63349 8.55556 7.59917C7.81432 7.46803 7.05382 7.68414 6.49237 8.18561C4.53899 10.1385 7.52503 15.2325 11.3257 19.0337C13.1264 20.8971 15.2188 22.4545 17.5206 23.6447C17.9374 23.8442 18.367 24.0161 18.8065 24.1591L15.0186 25.5954C9.96062 23.6724 6.31943 19.1883 5.4757 13.8431C5.43005 13.5523 5.15722 13.3534 4.86633 13.399C4.57545 13.4447 4.37659 13.7175 4.42224 14.0084C4.50594 14.5415 4.6179 15.0747 4.75491 15.5961C5.98257 20.2475 9.21604 24.1117 13.5781 26.1402L7.34377 28.4993C7.31518 28.4516 7.27919 28.4088 7.23714 28.3724C5.65269 27.1003 4.65855 25.2347 4.48622 23.2102L4.23885 20.2145C4.21939 19.9243 3.96828 19.7048 3.678 19.7243C3.67247 19.7247 3.66694 19.7251 3.66147 19.7257C3.36799 19.749 3.14894 20.0059 3.17226 20.2994C3.17233 20.3006 3.17246 20.3018 3.17259 20.303L3.42423 23.2976C3.61162 25.4616 4.6211 27.4715 6.245 28.9141L1.79766 30.5977L2.59735 27.3158C2.66712 27.0295 2.49173 26.741 2.2055 26.6712C1.91928 26.6014 1.63073 26.7768 1.56096 27.0631L0.520827 31.3281C0.450721 31.614 0.62572 31.9027 0.911742 31.9727C1.01663 31.9985 1.12679 31.9917 1.22775 31.9534L20.9534 24.4897C20.9848 24.4743 21.0144 24.4557 21.0419 24.4342C21.4688 24.3686 21.8646 24.1713 22.1737 23.8696C22.702 23.3413 23.1567 22.2521 22.3192 20.0679Z" fill="#D9C9AE"/>
<path d="M27.3502 18.693C24.4682 17.6141 21.3532 17.3116 18.3174 17.816L16.4126 18.1359C16.1234 18.1914 15.9341 18.4709 15.9897 18.76C16.0434 19.0394 16.3069 19.2274 16.5885 19.1872L18.4928 18.87C21.3438 18.396 24.2694 18.6803 26.9759 19.6942C27.036 19.7155 27.0993 19.7261 27.163 19.7256C27.4575 19.7261 27.6966 19.4879 27.697 19.1934C27.6974 18.9705 27.5591 18.7709 27.3502 18.693Z" fill="#D9C9AE"/>
<path d="M29.2456 10.4333C29.1189 10.1674 28.8008 10.0545 28.5349 10.1811L17.3393 15.5123C17.0734 15.6389 16.9605 15.957 17.087 16.2229L17.0871 16.223C17.2136 16.4888 17.5317 16.6018 17.7976 16.4752L17.7978 16.4752L28.9934 11.1439C29.2593 11.0173 29.3722 10.6992 29.2456 10.4333Z" fill="#D9C9AE"/>
<path d="M13.4531 3.61833C13.3945 3.32977 13.1131 3.14338 12.8245 3.20202C12.536 3.26067 12.3496 3.54209 12.4082 3.83064C12.4095 3.83704 12.4109 3.84337 12.4125 3.8497C13.0873 6.86446 12.8092 10.0144 11.6165 12.8643L10.8413 14.7244C10.7293 14.9954 10.8572 15.306 11.1276 15.4196C11.1924 15.4469 11.2621 15.4608 11.3324 15.4606C11.5475 15.4606 11.7416 15.3314 11.8244 15.1328L12.6001 13.2748C13.878 10.2221 14.176 6.8478 13.4531 3.61833Z" fill="#D9C9AE"/>
<path d="M29.8289 19.1925C28.9455 19.1925 28.2295 19.9086 28.2295 20.7919C28.2295 21.6752 28.9455 22.3913 29.8289 22.3913C30.7122 22.3913 31.4282 21.6752 31.4282 20.7919C31.4282 19.9086 30.7122 19.1925 29.8289 19.1925ZM29.8289 21.325C29.5345 21.325 29.2957 21.0863 29.2957 20.7919C29.2957 20.4975 29.5345 20.2588 29.8289 20.2588C30.1233 20.2588 30.362 20.4975 30.362 20.7919C30.362 21.0863 30.1233 21.325 29.8289 21.325Z" fill="#D9C9AE"/>
<path d="M17.0335 4.265C16.1501 4.265 15.4341 4.98105 15.4341 5.86438C15.4341 6.7477 16.1501 7.46375 17.0335 7.46375C17.9168 7.46375 18.6328 6.7477 18.6328 5.86438C18.6328 4.98105 17.9168 4.265 17.0335 4.265ZM17.0335 6.3975C16.739 6.3975 16.5003 6.15879 16.5003 5.86438C16.5003 5.56996 16.739 5.33125 17.0335 5.33125C17.3279 5.33125 17.5666 5.56996 17.5666 5.86438C17.5666 6.15879 17.3279 6.3975 17.0335 6.3975Z" fill="#D9C9AE"/>
<path d="M12.2357 2.1325C12.8246 2.1325 13.3019 1.65513 13.3019 1.06625C13.3019 0.477377 12.8246 0 12.2357 0C11.6468 0 11.1694 0.477377 11.1694 1.06625C11.1694 1.65513 11.6468 2.1325 12.2357 2.1325Z" fill="#D9C9AE"/>
<path d="M27.163 2.66563C26.8686 2.66563 26.6299 2.90434 26.6299 3.19876V3.73189C26.6299 4.0263 26.8686 4.26501 27.163 4.26501C27.4574 4.26501 27.6961 4.0263 27.6961 3.73189V3.19876C27.6961 2.90434 27.4574 2.66563 27.163 2.66563Z" fill="#D9C9AE"/>
<path d="M27.163 0C26.8686 0 26.6299 0.238707 26.6299 0.533126V1.06625C26.6299 1.36067 26.8686 1.59938 27.163 1.59938C27.4574 1.59938 27.6961 1.36067 27.6961 1.06625V0.533126C27.6961 0.238707 27.4574 0 27.163 0Z" fill="#D9C9AE"/>
<path d="M28.7625 1.59938H28.2294C27.935 1.59938 27.6963 1.83809 27.6963 2.13251C27.6963 2.42692 27.935 2.66563 28.2294 2.66563H28.7625C29.057 2.66563 29.2957 2.42692 29.2957 2.13251C29.2957 1.83809 29.057 1.59938 28.7625 1.59938Z" fill="#D9C9AE"/>
<path d="M26.097 1.59938H25.5639C25.2695 1.59938 25.0308 1.83809 25.0308 2.13251C25.0308 2.42692 25.2695 2.66563 25.5639 2.66563H26.097C26.3914 2.66563 26.6301 2.42692 26.6301 2.13251C26.6301 1.83809 26.3914 1.59938 26.097 1.59938Z" fill="#D9C9AE"/>
<path d="M23.4311 5.85318H20.7543C20.4599 5.85318 20.2212 6.09189 20.2212 6.38631V9.06313C20.2212 9.35755 20.4599 9.59626 20.7543 9.59626H23.4311C23.7256 9.59626 23.9643 9.35755 23.9643 9.06313V6.38631C23.9643 6.09189 23.7256 5.85318 23.4311 5.85318ZM22.898 8.53H21.2874V6.91943H22.898V8.53Z" fill="#D9C9AE"/>
<path d="M19.5473 10.3051C19.3515 10.0961 19.0258 10.0791 18.8093 10.2664L13.4781 15.0645C13.2594 15.2615 13.2417 15.5985 13.4386 15.8173C13.6356 16.036 13.9726 16.0537 14.1914 15.8568L19.5227 11.0586C19.7376 10.8573 19.7486 10.52 19.5473 10.3051Z" fill="#D9C9AE"/>
<path d="M29.2953 12.2619C29.0009 12.2619 28.7622 12.5006 28.7622 12.795V13.3281C28.7622 13.6226 29.0009 13.8613 29.2953 13.8613C29.5898 13.8613 29.8285 13.6226 29.8285 13.3281V12.795C29.8285 12.5006 29.5898 12.2619 29.2953 12.2619Z" fill="#D9C9AE"/>
<path d="M31.5577 12.1702L31.1808 11.7933C30.969 11.5887 30.6316 11.5946 30.427 11.8063C30.2275 12.0129 30.2275 12.3405 30.427 12.5471L30.8039 12.924C31.0157 13.1286 31.3532 13.1228 31.5577 12.911C31.7573 12.7043 31.7573 12.3768 31.5577 12.1702Z" fill="#D9C9AE"/>
<path d="M31.9613 10.1294H31.4281C31.1337 10.1294 30.895 10.3681 30.895 10.6625C30.895 10.9569 31.1337 11.1956 31.4281 11.1956H31.9613C32.2557 11.1956 32.4944 10.9569 32.4944 10.6625C32.4944 10.3681 32.2557 10.1294 31.9613 10.1294Z" fill="#D9C9AE"/>
<path d="M31.5443 8.401C31.3377 8.20148 31.0102 8.20148 30.8035 8.401L30.4266 8.77792C30.2184 8.98617 30.2185 9.32371 30.4267 9.53189C30.5267 9.63179 30.6622 9.68797 30.8035 9.68797C30.9449 9.68797 31.0805 9.63172 31.1804 9.53176L31.5574 9.15484C31.762 8.94306 31.7561 8.60552 31.5443 8.401Z" fill="#D9C9AE"/>
<path d="M29.2953 7.46376C29.0009 7.46376 28.7622 7.70247 28.7622 7.99689V8.53001C28.7622 8.82443 29.0009 9.06314 29.2953 9.06314C29.5898 9.06314 29.8285 8.82443 29.8285 8.53001V7.99689C29.8285 7.70247 29.5898 7.46376 29.2953 7.46376Z" fill="#D9C9AE"/>
<path d="M28.1642 8.77791L27.7873 8.40099C27.5755 8.19647 27.238 8.20227 27.0334 8.41405C26.8339 8.62064 26.8339 8.94818 27.0334 9.15483L27.4103 9.53175C27.6221 9.73634 27.9596 9.73047 28.1642 9.51869C28.3638 9.31204 28.3638 8.9845 28.1642 8.77791Z" fill="#D9C9AE"/>
<path d="M6.87791 2.30524C6.81514 2.11238 6.64834 1.9719 6.44768 1.94271L4.88296 1.71507L4.1851 0.297489C4.02956 0.0333914 3.68936 -0.054641 3.42526 0.100898C3.34409 0.14868 3.27645 0.21632 3.22867 0.297489L2.52761 1.71507L0.962885 1.94271C0.671465 1.98476 0.469344 2.25513 0.511394 2.54655C0.528121 2.66257 0.582633 2.76979 0.666467 2.85169L1.79829 3.95526L1.53173 5.51359C1.48055 5.80354 1.67407 6.0801 1.96403 6.13128C2.08078 6.15187 2.201 6.13301 2.30583 6.07764L3.70528 5.33979L5.10474 6.0755C5.36537 6.21252 5.68771 6.11236 5.82472 5.85172C5.8793 5.74796 5.8981 5.62914 5.8783 5.51359L5.61174 3.95526L6.7441 2.85169C6.88904 2.70982 6.94089 2.49803 6.87791 2.30524ZM4.66491 3.38748C4.53936 3.50977 4.48198 3.68597 4.51137 3.85877L4.64358 4.62913L3.95319 4.26501C3.79798 4.18351 3.61259 4.18351 3.45738 4.26501L2.76432 4.6286L2.89653 3.85823C2.92645 3.6861 2.87007 3.51017 2.74566 3.38748L2.18534 2.8421L2.95891 2.72961C3.13257 2.70442 3.28271 2.59533 3.36035 2.43799L3.70528 1.73799L4.05075 2.43799C4.12832 2.59519 4.27819 2.70422 4.45166 2.72961L5.22469 2.8421L4.66491 3.38748Z" fill="#D9C9AE"/>
<path d="M30.6932 26.7229H30.691L30.4714 26.3934C29.2398 24.5517 27.3032 23.2994 25.1183 22.9319C24.8268 22.8903 24.5568 23.0929 24.5152 23.3844C24.475 23.666 24.663 23.9295 24.9423 23.9832C26.5183 24.2507 27.9544 25.0513 29.0106 26.2511C28.1226 26.4108 27.346 26.9442 26.8781 27.7156C26.3039 28.7439 26.6721 30.043 27.7005 30.6171C28.7288 31.1913 30.0278 30.8231 30.602 29.7948C30.8213 29.3714 30.9397 28.903 30.948 28.4263C31.5152 29.2501 31.5606 30.326 31.0648 31.1948C30.9145 31.448 30.998 31.7751 31.2513 31.9253C31.5045 32.0755 31.8316 31.992 31.9818 31.7388C31.9866 31.7306 31.9912 31.7224 31.9956 31.714C32.9717 29.9705 32.3968 27.7672 30.6932 26.7229ZM29.6722 29.2745C29.3877 29.7901 28.7391 29.9773 28.2235 29.6928C27.708 29.4082 27.5207 28.7596 27.8052 28.2441C27.8068 28.2412 27.8084 28.2383 27.81 28.2354C28.1246 27.7203 28.6553 27.3749 29.2537 27.296C29.3464 27.2935 29.4382 27.3148 29.5203 27.3579C29.9702 27.609 29.9942 28.6976 29.6722 29.2745Z" fill="#D9C9AE"/>
</g>
<defs>
<clipPath id="clip0_997_4372">
<rect width="32" height="32" fill="white" transform="translate(0.5)"/>
</clipPath>
</defs>
</svg>
