<svg width="70" height="61" viewBox="0 0 70 61" fill="none" xmlns="http://www.w3.org/2000/svg">
<path d="M22.4833 60.2628C13.6122 60.1608 3.3135 54.7566 0.560387 42.7244C-0.0514165 40.1753 -0.0514165 38.5438 0.0505509 26.0018C0.0505509 21.6172 0.0505509 15.8051 0.0505509 8.25952H9.5335C9.5335 12.4402 9.43153 16.111 9.43153 19.3739C9.32957 37.83 9.32957 42.2146 13.0004 46.3953C15.4476 49.0464 18.8125 50.5759 22.4833 50.5759C26.1542 50.5759 29.5191 49.0464 31.9663 46.3953C35.6371 42.2146 35.6371 37.83 35.5351 19.3739C35.5351 16.111 35.4332 22.5349 35.4332 18.3543H40.1746H44.9161C44.9161 25.8998 44.9161 21.5153 44.9161 26.0018C45.0181 38.5438 45.0181 40.1753 44.4063 42.8264C41.6532 54.7566 31.4565 60.1608 22.4833 60.2628Z" fill="#1C1C1C"/>
<path d="M58.3756 39.0534L66.0231 45.0695C64.9015 46.1912 63.4739 47.3128 61.2307 48.5364L60.211 49.1482C56.6421 50.9836 52.5634 52.0033 48.4848 52.0033C36.9625 52.0033 26.7657 44.2538 23.5028 33.2413L23.4008 32.4256C22.789 30.3862 22.5851 28.143 22.5851 26.0016C22.5851 11.6243 34.2093 0 48.4848 0C52.8693 0 57.152 1.12164 60.9248 3.16098L61.2307 3.26295C64.6975 5.30229 67.7566 7.95344 69.9998 11.2164L55.0107 30.4882L47.669 24.5741L57.3559 12.1341L54.9087 10.8085C53.7871 10.0948 51.1359 9.38098 48.4848 9.38098C39.4097 9.38098 31.9661 16.8246 31.9661 26.0016C31.9661 33.8531 37.5743 40.6849 45.4257 42.2144C46.0375 42.3164 47.1592 42.4184 47.4651 42.4184C47.9749 42.5203 48.5867 42.5203 49.0966 42.5203C52.4615 42.3164 55.6225 41.1948 58.3756 39.0534Z" fill="#1C1C1C"/>
</svg>
