<svg width="31" height="32" viewBox="0 0 31 32" fill="none" xmlns="http://www.w3.org/2000/svg">
<path d="M24.0442 8.27287C24.4171 8.59879 24.6521 9.07826 24.6521 9.61413V20.3787C24.6521 21.3658 23.8561 22.1618 22.869 22.1618H5.87761C4.8936 22.1618 4.09448 21.3658 4.09448 20.3787V9.61413C4.09448 9.1566 4.26684 8.73981 4.55201 8.42643" stroke="#D9C9AE" stroke-width="0.627451" stroke-miterlimit="10" stroke-linecap="round" stroke-linejoin="round"/>
<path d="M24.6526 12.4719H26.7081V17.5235H24.6526V12.4719Z" stroke="#D9C9AE" stroke-width="0.627451" stroke-miterlimit="10" stroke-linecap="round" stroke-linejoin="round"/>
<path d="M26.7083 12.4718V17.5234L29.2231 20.0332C29.7057 20.5149 30.5298 20.173 30.5298 19.4912V10.504C30.5298 9.82215 29.7057 9.48033 29.2231 9.96199L26.7083 12.4718Z" stroke="#D9C9AE" stroke-width="0.627451" stroke-miterlimit="10" stroke-linecap="round" stroke-linejoin="round"/>
<path d="M2.25024 11.8388H4.09401V14.5437H2.25024V11.8388Z" stroke="#D9C9AE" stroke-width="0.627451" stroke-miterlimit="10" stroke-linecap="round" stroke-linejoin="round"/>
<path d="M0.469727 11.2564V15.1263C0.469727 15.618 0.868287 16.0165 1.35994 16.0165C1.85159 16.0165 2.25015 15.618 2.25015 15.1263V11.2564C2.25015 10.7648 1.85159 10.3662 1.35994 10.3662C0.868293 10.3662 0.469727 10.7648 0.469727 11.2564Z" stroke="#D9C9AE" stroke-width="0.627451" stroke-miterlimit="10" stroke-linecap="round" stroke-linejoin="round"/>
<path d="M13.6806 7.00011C13.6806 9.58213 11.5862 11.6766 9.00417 11.6766C6.42215 11.6766 4.33057 9.58213 4.33057 7.00011C4.33057 4.42097 6.42215 2.32652 9.00417 2.32652C11.5862 2.32652 13.6806 4.42097 13.6806 7.00011Z" stroke="#D9C9AE" stroke-width="0.627451" stroke-miterlimit="10" stroke-linecap="round" stroke-linejoin="round"/>
<path d="M10.7437 7.00101C10.7437 7.96101 9.96496 8.73973 9.00497 8.73973C8.04498 8.73973 7.26733 7.96101 7.26733 7.00101C7.26733 6.0421 8.04498 5.26338 9.00497 5.26338C9.96496 5.26338 10.7437 6.0421 10.7437 7.00101Z" stroke="#D9C9AE" stroke-width="0.627451" stroke-miterlimit="10" stroke-linecap="round" stroke-linejoin="round"/>
<path d="M24.4161 6.30723C24.4161 9.27181 22.0113 11.6766 19.0467 11.6766C16.0821 11.6766 13.6807 9.27181 13.6807 6.30723C13.6807 3.34596 16.0821 0.941193 19.0467 0.941193C22.0113 0.941193 24.4161 3.34596 24.4161 6.30723Z" stroke="#D9C9AE" stroke-width="0.627451" stroke-miterlimit="10" stroke-linecap="round" stroke-linejoin="round"/>
<path d="M21.0439 6.30827C21.0439 7.4105 20.1498 8.3046 19.0476 8.3046C17.9454 8.3046 17.0525 7.4105 17.0525 6.30827C17.0525 5.20728 17.9454 4.31319 19.0476 4.31319C20.1498 4.31319 21.0439 5.20728 21.0439 6.30827Z" stroke="#D9C9AE" stroke-width="0.627451" stroke-miterlimit="10" stroke-linecap="round" stroke-linejoin="round"/>
<path d="M13.3945 17.0903V19.1072C13.3945 19.4127 13.1469 19.6603 12.8414 19.6603H7.35907C7.05357 19.6603 6.80591 19.4127 6.80591 19.1072V17.0903C6.80591 16.7848 7.05357 16.5372 7.35907 16.5372H12.8414C13.1469 16.5372 13.3945 16.7848 13.3945 17.0903Z" stroke="#D9C9AE" stroke-width="0.627451" stroke-miterlimit="10" stroke-linecap="round" stroke-linejoin="round"/>
<path d="M20.0232 22.162V23.7389C20.0232 24.457 19.441 25.0392 18.7229 25.0392H10.0235C9.30532 25.0392 8.72314 24.457 8.72314 23.7389V22.162H20.0232Z" stroke="#D9C9AE" stroke-width="0.627451" stroke-miterlimit="10" stroke-linecap="round" stroke-linejoin="round"/>
<path d="M15.3949 25.0388V30.0374C15.3949 30.6015 14.9376 31.0588 14.3735 31.0588C13.8094 31.0588 13.3521 30.6015 13.3521 30.0374V25.0388H15.3949Z" stroke="#D9C9AE" stroke-width="0.627451" stroke-miterlimit="10" stroke-linecap="round" stroke-linejoin="round"/>
<path d="M13.2854 25.0388L10.2586 30.5638C10.1014 30.8508 9.80022 31.0292 9.473 31.0292C8.79231 31.0292 8.36033 30.3 8.68737 29.703L11.2425 25.0388H13.2854Z" stroke="#D9C9AE" stroke-width="0.627451" stroke-miterlimit="10" stroke-linecap="round" stroke-linejoin="round"/>
<path d="M15.4614 25.0388L18.4882 30.5638C18.6454 30.8508 18.9466 31.0292 19.2738 31.0292C19.9545 31.0292 20.3865 30.3 20.0594 29.703L17.5042 25.0388H15.4614Z" stroke="#D9C9AE" stroke-width="0.627451" stroke-miterlimit="10" stroke-linecap="round" stroke-linejoin="round"/>
</svg>
