<svg width="13" height="14" viewBox="0 0 13 14" fill="none" xmlns="http://www.w3.org/2000/svg">
<path d="M12.4064 10.3022C12.4344 10.3025 12.4621 10.297 12.4879 10.2863C12.5137 10.2755 12.537 10.2596 12.5563 10.2395C12.5756 10.2194 12.5906 10.1957 12.6002 10.1696C12.6099 10.1436 12.614 10.1159 12.6124 10.0882C12.6124 9.93651 12.5199 9.86401 12.3303 9.86401H12.0238V10.6584H12.1391V10.3121H12.2807L12.284 10.3163L12.5038 10.6584H12.6271L12.3905 10.3044L12.4064 10.3022ZM12.2731 10.2226H12.1394V9.95404H12.3088C12.3963 9.95404 12.4961 9.9682 12.4961 10.0817C12.4961 10.2122 12.3951 10.2226 12.2724 10.2226" fill="#0A0A0C"/>
<path d="M9.39952 9.30686H7.76498V6.77229C7.76498 6.1679 7.75408 5.38986 6.91484 5.38986C6.06351 5.38986 5.93326 6.04837 5.93326 6.72829V9.30669H4.2987V4.09459H5.86787V4.80688H5.88984C6.04687 4.54102 6.2738 4.32231 6.54644 4.17405C6.81908 4.02579 7.12723 3.95352 7.43807 3.96495C9.09476 3.96495 9.40021 5.04391 9.40021 6.44759L9.39952 9.30686ZM2.45438 3.38213C2.26677 3.38217 2.08337 3.32712 1.92736 3.22394C1.77135 3.12077 1.64976 2.9741 1.57793 2.8025C1.50611 2.63089 1.48728 2.44205 1.52385 2.25986C1.56042 2.07766 1.65073 1.9103 1.78337 1.77892C1.916 1.64755 2.085 1.55807 2.26899 1.52179C2.45299 1.48552 2.64371 1.50409 2.81705 1.57514C2.99039 1.6462 3.13855 1.76655 3.24281 1.92099C3.34706 2.07542 3.40273 2.257 3.40276 2.44276C3.40279 2.56609 3.37827 2.68823 3.33062 2.80219C3.28297 2.91615 3.21313 3.0197 3.12506 3.10693C3.037 3.19416 2.93243 3.26336 2.81736 3.31058C2.70228 3.3578 2.57895 3.38211 2.45438 3.38213ZM3.27165 9.30686H1.6354V4.09459H3.27165V9.30686ZM10.2144 0.00074418H0.814043C0.60068 -0.0016399 0.395081 0.0799465 0.24244 0.227575C0.089799 0.375204 0.00260397 0.576796 0 0.788054V10.1345C0.00251484 10.3458 0.0896587 10.5476 0.242294 10.6953C0.39493 10.8431 0.600575 10.9249 0.814043 10.9226H10.2144C10.4283 10.9253 10.6345 10.8438 10.7878 10.696C10.941 10.5482 11.0287 10.3462 11.0317 10.1345V0.78738C11.0286 0.575703 10.9409 0.373881 10.7876 0.226256C10.6344 0.078631 10.4282 -0.00272222 10.2144 6.9551e-05" fill="#0A0A0C"/>
<path d="M9.74501 12C9.54614 12.0019 9.35611 12.0817 9.2165 12.2219C9.07689 12.3622 8.99905 12.5515 9.00001 12.7484C9.00097 12.9453 9.08065 13.1338 9.22161 13.2727C9.36258 13.4116 9.55336 13.4896 9.75224 13.4896C9.95112 13.4896 10.1419 13.4116 10.2829 13.2727C10.4238 13.1338 10.5035 12.9453 10.5045 12.7484C10.5054 12.5515 10.4276 12.3622 10.288 12.2219C10.1484 12.0817 9.95834 12.0019 9.75947 12H9.74501ZM9.74501 13.4043C9.61457 13.4065 9.48641 13.3703 9.37675 13.3003C9.26708 13.2304 9.18084 13.1298 9.12891 13.0113C9.07699 12.8928 9.06172 12.7617 9.08504 12.6346C9.10836 12.5075 9.16922 12.3901 9.25992 12.2973C9.35062 12.2044 9.46708 12.1403 9.59459 12.113C9.7221 12.0857 9.85493 12.0964 9.97627 12.1438C10.0976 12.1913 10.202 12.2733 10.2763 12.3795C10.3506 12.4857 10.3914 12.6113 10.3935 12.7404C10.3935 12.7442 10.3935 12.7477 10.3935 12.7514C10.3972 12.9208 10.3327 13.0848 10.2143 13.2071C10.0959 13.3295 9.93331 13.4003 9.76219 13.404H9.74517" fill="#0A0A0C"/>
</svg>
