<svg width="25" height="22" viewBox="0 0 25 22" fill="none" xmlns="http://www.w3.org/2000/svg">
    <path d="M23.7733 19.7415C23.8269 19.742 23.8801 19.7316 23.9295 19.711C23.9789 19.6903 24.0235 19.6598 24.0605 19.6213C24.0976 19.5829 24.1262 19.5373 24.1447 19.4875C24.1632 19.4376 24.1711 19.3845 24.168 19.3315C24.168 19.0408 23.9909 18.9019 23.6274 18.9019H23.0402V20.4241H23.261V19.7605H23.5325L23.5387 19.7686L23.9599 20.4241H24.1961L23.7429 19.7457L23.7733 19.7415ZM23.5178 19.589H23.2617V19.0744H23.5863C23.754 19.0744 23.9452 19.1015 23.9452 19.3189C23.9452 19.569 23.7517 19.589 23.5165 19.589" fill="white"/>
    <path d="M18.0115 17.8339H14.8794V12.9772C14.8794 11.819 14.8585 10.3281 13.2503 10.3281C11.619 10.3281 11.3694 11.59 11.3694 12.8928V17.8336H8.23722V7.84611H11.2441V9.21101H11.2862C11.5871 8.70157 12.0219 8.28248 12.5444 7.99838C13.0668 7.71427 13.6573 7.57579 14.2529 7.59769C17.4275 7.59769 18.0128 9.66522 18.0128 12.355L18.0115 17.8339ZM4.70312 6.48089C4.34362 6.48096 3.99218 6.37547 3.69323 6.17776C3.39429 5.98006 3.16129 5.69902 3.02366 5.37019C2.88602 5.04136 2.84995 4.6795 2.92003 4.33037C2.9901 3.98125 3.16316 3.66054 3.41731 3.4088C3.67146 3.15706 3.9953 2.98559 4.34788 2.91608C4.70045 2.84658 5.06591 2.88215 5.39807 3.01831C5.73022 3.15447 6.01413 3.38509 6.21391 3.68102C6.41369 3.97695 6.52036 4.32489 6.52042 4.68084C6.52046 4.91719 6.47349 5.15122 6.38218 5.36959C6.29088 5.58796 6.15704 5.78639 5.98829 5.95354C5.81954 6.12069 5.61917 6.25329 5.39866 6.34377C5.17815 6.43426 4.94181 6.48085 4.70312 6.48089ZM6.26919 17.8339H3.13378V7.84611H6.26919V17.8339ZM19.573 0.00142601H1.55988C1.15103 -0.00314239 0.757059 0.153195 0.464567 0.436083C0.172074 0.718971 0.00498976 1.10526 0 1.51008V19.4198C0.00481898 19.8248 0.171805 20.2114 0.464288 20.4946C0.75677 20.7777 1.15083 20.9344 1.55988 20.9301H19.573C19.9829 20.9352 20.378 20.779 20.6717 20.4958C20.9653 20.2126 21.1334 19.8256 21.1391 19.4198V1.50879C21.1332 1.10317 20.965 0.716436 20.6714 0.433555C20.3777 0.150674 19.9827 -0.00521635 19.573 0.000133275" fill="white"/>
    <path d="M23.5447 18.2239C23.1636 18.2275 22.7994 18.3804 22.5319 18.6491C22.2644 18.9179 22.1152 19.2806 22.1171 19.6579C22.1189 20.0353 22.2716 20.3965 22.5417 20.6627C22.8118 20.9289 23.1774 21.0783 23.5585 21.0783C23.9396 21.0783 24.3052 20.9289 24.5753 20.6627C24.8454 20.3965 24.9981 20.0353 24.9999 19.6579C25.0018 19.2806 24.8526 18.9179 24.5851 18.6491C24.3176 18.3804 23.9535 18.2275 23.5724 18.2239H23.5447ZM23.5447 20.9149C23.2947 20.919 23.0491 20.8497 22.839 20.7156C22.6289 20.5815 22.4636 20.3888 22.3641 20.1617C22.2646 19.9346 22.2353 19.6834 22.28 19.4399C22.3247 19.1963 22.4413 18.9714 22.6151 18.7935C22.7889 18.6156 23.0121 18.4927 23.2564 18.4403C23.5008 18.388 23.7553 18.4086 23.9878 18.4995C24.2203 18.5904 24.4204 18.7476 24.5627 18.951C24.7051 19.1545 24.7832 19.3952 24.7874 19.6427C24.7874 19.6498 24.7874 19.6566 24.7874 19.6637C24.7944 19.9884 24.6709 20.3025 24.444 20.537C24.2171 20.7715 23.9055 20.9072 23.5776 20.9143H23.545" fill="white"/>
    </svg>
    