<svg width="33" height="32" viewBox="0 0 33 32" fill="none" xmlns="http://www.w3.org/2000/svg">
<path d="M8.40315 25.9394C8.06376 28.3152 7.57891 30.6909 7.14255 30.6424C6.51225 30.594 6.26982 28.3152 6.17285 25.5031" stroke="#D9C9AE" stroke-width="0.727273" stroke-miterlimit="10" stroke-linecap="round" stroke-linejoin="round"/>
<path d="M10.7304 30.7394C10.6335 30.9334 10.5365 31.0303 10.391 31.0303C9.8577 31.0303 9.46982 28.5091 9.27588 26.0364" stroke="#D9C9AE" stroke-width="0.727273" stroke-miterlimit="10" stroke-linecap="round" stroke-linejoin="round"/>
<path d="M17.1304 12.3152V12.7031V12.897V13.1394V14.6909" stroke="#D9C9AE" stroke-width="0.727273" stroke-miterlimit="10" stroke-linecap="round" stroke-linejoin="round"/>
<path d="M17.9059 30.3031C18.0513 30.7394 18.2453 31.0303 18.4392 31.0303C19.6998 31.0303 20.1362 20.7031 20.1846 19.1516C20.1846 19.0061 20.1846 18.9576 20.1846 18.9576C20.1846 18.9576 20.1846 19.0061 20.1846 19.1031C20.3301 20.5576 21.3968 30.6425 22.4634 30.5455C24.4998 30.3516 23.4331 10.2303 23.4331 10.0364C23.4331 10.0364 30.6574 2.37579 29.4937 1.11519C28.4271 -0.0969334 23.1907 6.35155 19.6513 7.66064C18.8271 7.95155 17.6634 8.09701 16.4028 8.09701" stroke="#D9C9AE" stroke-width="0.727273" stroke-miterlimit="10" stroke-linecap="round" stroke-linejoin="round"/>
<path d="M16.6455 10.9091C16.5486 10.9091 16.4516 10.9091 16.3062 10.9091H16.6455Z" stroke="#D9C9AE" stroke-width="0.727273" stroke-miterlimit="10" stroke-linecap="round" stroke-linejoin="round"/>
<path d="M19.0214 5.8182C20.3603 5.8182 21.4457 4.73283 21.4457 3.39395C21.4457 2.05508 20.3603 0.969711 19.0214 0.969711C17.6825 0.969711 16.5972 2.05508 16.5972 3.39395C16.5972 4.73283 17.6825 5.8182 19.0214 5.8182Z" stroke="#D9C9AE" stroke-width="0.727273" stroke-miterlimit="10"/>
<path d="M10.1969 24.6303C7.04536 24.4849 3.16657 23.3697 3.36051 21.9152C3.36051 21.9152 7.09384 13.5758 7.04536 10.6182C6.99687 8.43637 4.13627 2.32728 5.78475 1.98789C7.38475 1.69698 8.74233 8.77577 10.6817 10.0849C11.6514 10.7636 13.9787 10.8121 16.0635 10.8606H16.2575H16.5969H17.1302" stroke="#D9C9AE" stroke-width="0.727273" stroke-miterlimit="10" stroke-linecap="round" stroke-linejoin="round"/>
<path d="M12.6696 18.0364C10.6818 17.1637 7.86964 14.6909 7.09388 15.9515C6.12419 17.4061 11.9424 21.0909 11.9424 21.0909" stroke="#D9C9AE" stroke-width="0.727273" stroke-miterlimit="10" stroke-linecap="round" stroke-linejoin="round"/>
<path d="M20.2335 19.103C20.2335 19.0061 20.2335 18.9576 20.2335 18.9576C20.2335 18.9576 20.185 19.0061 20.2335 19.103Z" stroke="#D9C9AE" stroke-width="0.727273" stroke-miterlimit="10" stroke-linecap="round" stroke-linejoin="round"/>
<path d="M14.2698 25.6C14.2698 25.6 14.7546 31.0303 15.8213 31.0303C17.4213 31.0303 17.0819 20.0243 17.0819 20.0243C17.0819 20.0243 21.591 16.3394 20.6213 15.1758C19.4577 13.7212 15.7243 18.2303 13.8334 18.3273C12.0395 18.4243 8.06372 14.4 7.04554 15.9515C6.07585 17.4061 11.894 21.0909 11.894 21.0909C11.894 21.0909 10.8274 31.0303 12.9122 31.0303C14.2698 31.0303 14.2698 25.6 14.2698 25.6Z" stroke="#D9C9AE" stroke-width="0.727273" stroke-miterlimit="10" stroke-linecap="round" stroke-linejoin="round"/>
<path d="M13.8818 16.7273C14.8726 16.7273 15.6758 15.9241 15.6758 14.9333C15.6758 13.9426 14.8726 13.1394 13.8818 13.1394C12.8911 13.1394 12.0879 13.9426 12.0879 14.9333C12.0879 15.9241 12.8911 16.7273 13.8818 16.7273Z" stroke="#D9C9AE" stroke-width="0.727273" stroke-miterlimit="10" stroke-linecap="round" stroke-linejoin="round"/>
<path d="M12.9604 8.92122C14.2992 8.92122 15.3846 7.83585 15.3846 6.49698C15.3846 5.15811 14.2992 4.07274 12.9604 4.07274C11.6215 4.07274 10.5361 5.15811 10.5361 6.49698C10.5361 7.83585 11.6215 8.92122 12.9604 8.92122Z" stroke="#D9C9AE" stroke-width="0.727273" stroke-miterlimit="10"/>
</svg>
