<svg width="33" height="32" viewBox="0 0 33 32" fill="none" xmlns="http://www.w3.org/2000/svg">
<path d="M10.7388 16.4375C9.62508 17.375 7.8657 17.375 6.75008 16.4375C6.67034 16.384 6.57367 16.3618 6.47859 16.3752C6.38351 16.3885 6.29669 16.4365 6.23477 16.5099C6.17284 16.5832 6.14017 16.6769 6.14299 16.7729C6.14582 16.8688 6.18394 16.9604 6.25008 17.03C6.9485 17.62 7.83328 17.9438 8.74758 17.9438C9.66188 17.9438 10.5467 17.62 11.2451 17.03C11.2859 16.9975 11.3197 16.9571 11.3446 16.9113C11.3695 16.8655 11.385 16.8152 11.3901 16.7633C11.3953 16.7114 11.3899 16.659 11.3744 16.6092C11.3589 16.5594 11.3336 16.5132 11.3 16.4733C11.2663 16.4335 11.225 16.4008 11.1785 16.3772C11.132 16.3536 11.0812 16.3396 11.0292 16.336C10.9772 16.3323 10.9249 16.3392 10.8756 16.3561C10.8263 16.373 10.7808 16.3996 10.742 16.4344L10.7388 16.4375Z" fill="#D9C9AE"/>
<path d="M25.2374 16.4625C24.1224 17.4038 22.3624 17.4038 21.2493 16.4625C21.1699 16.3992 21.069 16.3694 20.9679 16.3794C20.8669 16.3893 20.7738 16.4383 20.7083 16.5158C20.6428 16.5934 20.6101 16.6934 20.6172 16.7947C20.6242 16.8959 20.6705 16.9904 20.7461 17.0581C21.4442 17.6486 22.329 17.9726 23.2433 17.9726C24.1577 17.9726 25.0424 17.6486 25.7405 17.0581C25.8162 16.9904 25.8624 16.8959 25.8695 16.7947C25.8766 16.6934 25.8439 16.5934 25.7784 16.5158C25.7129 16.4383 25.6197 16.3893 25.5187 16.3794C25.4177 16.3694 25.3168 16.3992 25.2374 16.4625Z" fill="#D9C9AE"/>
<path d="M29.2138 15.0281C29.1082 15.0281 29.0169 15.0331 28.9344 15.04C28.9425 14.9394 28.9475 14.8387 28.95 14.7369L28.9719 14.6812C29.2275 14.0312 29.5169 13.295 29.5169 12.505C29.5169 9.16312 26.8694 6.73687 23.2213 6.73687C19.5963 6.73687 16.9713 9.16312 16.9713 12.505C16.9713 13.3025 17.2263 14.0394 17.4932 14.7275C17.4932 14.8312 17.5007 14.9337 17.5088 15.0362C17.4375 15.0312 17.36 15.0281 17.2744 15.0281C16.2957 15.0281 14.4825 15.4331 14.6044 18.4606L14.6219 18.4637C14.8507 18.4831 15.0644 18.4925 15.265 18.4925C17.0775 18.4925 17.765 17.735 17.9938 16.9387C18.3332 17.6901 18.83 18.3598 19.4507 18.9025C18.3421 19.6055 17.4146 20.5595 16.7432 21.6875C16.7243 21.7046 16.7072 21.7234 16.6919 21.7437C16.6822 21.7638 16.6745 21.7847 16.6688 21.8062C16.386 22.3175 16.1597 22.858 15.9938 23.4181C15.8279 22.8601 15.602 22.3218 15.32 21.8125C15.3142 21.7891 15.3062 21.7663 15.2963 21.7444C15.28 21.7216 15.2614 21.7007 15.2407 21.6819C14.561 20.5468 13.6217 19.5891 12.5 18.8875C13.6416 17.8969 14.3448 16.4948 14.4563 14.9875C14.4563 14.9831 14.4632 14.9806 14.4644 14.9756C15.5438 11.7881 15.2888 9.71937 15.2769 9.6325C15.2769 9.62562 15.2769 9.61875 15.2769 9.61187C15.0807 8.56562 14.3619 7.69125 13.1988 7.08312C11.0163 5.94375 7.96378 6.00437 6.38628 6.71437C4.29878 7.65187 3.07378 6.7525 3.02378 6.71437C2.96831 6.67106 2.90216 6.64356 2.83233 6.63479C2.76251 6.62602 2.69161 6.6363 2.62716 6.66456C2.5627 6.69281 2.50709 6.73798 2.46623 6.79528C2.42536 6.85257 2.40076 6.91986 2.39503 6.99L2.22065 9.16812C2.20753 9.27375 1.91315 11.7894 2.9919 14.9744C2.9994 14.9975 3.02003 15.0119 3.0319 15.0331C3.15485 16.5213 3.85464 17.9025 4.9819 18.8819C3.86022 19.587 2.92216 20.5487 2.24503 21.6875C2.22548 21.7045 2.20787 21.7235 2.19253 21.7444C2.18325 21.7645 2.17572 21.7854 2.17003 21.8069C1.62503 22.78 1.22753 23.95 1.1119 25.3781C1.10771 25.4292 1.11362 25.4806 1.12928 25.5293C1.14495 25.5781 1.17007 25.6233 1.20321 25.6624C1.23635 25.7014 1.27686 25.7336 1.32243 25.757C1.36799 25.7804 1.41773 25.7946 1.46878 25.7987H1.50003C1.59791 25.7986 1.69218 25.7617 1.76417 25.6954C1.83617 25.6291 1.88064 25.5382 1.88878 25.4406C1.96427 24.4183 2.23544 23.42 2.68753 22.5L4.4244 23.545V25.4119C4.4244 25.5153 4.46549 25.6145 4.53863 25.6876C4.61177 25.7608 4.71097 25.8019 4.8144 25.8019C4.91784 25.8019 5.01704 25.7608 5.09018 25.6876C5.16332 25.6145 5.2044 25.5153 5.2044 25.4119V23.3231C5.20459 23.256 5.18742 23.1899 5.15457 23.1313C5.12173 23.0727 5.0743 23.0236 5.0169 22.9887L3.06815 21.8181C3.71718 20.8134 4.59296 19.9751 5.62503 19.3706C6.54844 19.9745 7.62728 20.2974 8.73062 20.3C9.83395 20.3027 10.9143 19.985 11.8407 19.3856C12.8724 19.991 13.7505 20.8262 14.4069 21.8262L12.475 22.9887C12.4176 23.0236 12.3701 23.0727 12.3373 23.1313C12.3044 23.1899 12.2873 23.2559 12.2875 23.3231V25.41C12.2916 25.5106 12.3344 25.6058 12.407 25.6756C12.4797 25.7454 12.5765 25.7844 12.6772 25.7844C12.7779 25.7844 12.8748 25.7454 12.9474 25.6756C13.0201 25.6058 13.0629 25.5106 13.0669 25.41V23.5431L14.7938 22.5037C15.2519 23.4209 15.5262 24.4188 15.6013 25.4412C15.6072 25.5065 15.6297 25.5691 15.6667 25.6232C15.7036 25.6772 15.7539 25.7209 15.8125 25.75L15.8257 25.7575C15.8587 25.7721 15.8936 25.7822 15.9294 25.7875C15.9432 25.7875 15.9544 25.7975 15.9682 25.7987H16H16.0119H16.0207C16.0307 25.7987 16.0388 25.7919 16.0482 25.7906C16.1364 25.7804 16.2185 25.74 16.2805 25.6764C16.3425 25.6128 16.3808 25.5297 16.3888 25.4412C16.4647 24.4188 16.7358 23.4204 17.1875 22.5L18.925 23.5456V25.4125C18.925 25.5159 18.9661 25.6151 19.0393 25.6883C19.1124 25.7614 19.2116 25.8025 19.315 25.8025C19.4185 25.8025 19.5177 25.7614 19.5908 25.6883C19.6639 25.6151 19.705 25.5159 19.705 25.4125V23.3231C19.7051 23.256 19.6879 23.19 19.655 23.1314C19.6222 23.0728 19.5748 23.0237 19.5175 22.9887L17.5713 21.8175C18.2122 20.8242 19.0753 19.9935 20.0925 19.3912C21.0227 20.0019 22.1111 20.3272 23.2238 20.3272C24.3365 20.3272 25.4249 20.0019 26.355 19.3912C27.3815 19.9958 28.2553 20.8283 28.9088 21.8244L26.9769 22.9869C26.9195 23.0217 26.872 23.0708 26.8392 23.1294C26.8063 23.188 26.7892 23.2541 26.7894 23.3212V25.4081C26.7894 25.5116 26.8305 25.6108 26.9036 25.6839C26.9768 25.757 27.076 25.7981 27.1794 25.7981C27.2828 25.7981 27.382 25.757 27.4552 25.6839C27.5283 25.6108 27.5694 25.5116 27.5694 25.4081V23.5431L29.2963 22.5037C29.7539 23.4211 30.028 24.4189 30.1032 25.4412C30.1114 25.5444 30.1603 25.6399 30.2391 25.707C30.3179 25.774 30.4201 25.807 30.5232 25.7987C30.6263 25.7905 30.7218 25.7416 30.7889 25.6628C30.8559 25.584 30.8889 25.4819 30.8807 25.3787C30.7657 23.9512 30.37 22.7837 29.8244 21.8162C29.8184 21.7926 29.8103 21.7696 29.8 21.7475C29.7837 21.7248 29.7651 21.7038 29.7444 21.685C29.067 20.5506 28.1304 19.593 27.0113 18.8906C27.642 18.3365 28.144 17.6511 28.4819 16.8825C28.6932 17.6987 29.3719 18.4925 31.2282 18.4925C31.4288 18.4925 31.6425 18.4831 31.8713 18.4637L31.8888 18.4606C32.0057 15.4331 30.1925 15.0281 29.2138 15.0281ZM17.0719 17.0975C16.7919 17.4856 16.2288 17.6912 15.3963 17.7112C15.4532 17.0825 15.6332 16.6075 15.9338 16.2944C16.32 15.8925 16.8757 15.8075 17.2732 15.8075H17.2888C17.3432 16.2012 17.3375 16.73 17.0719 17.0975ZM2.99628 9.25L3.12503 7.64625C3.8044 7.92312 5.04753 8.1725 6.7069 7.42562C8.1244 6.78687 10.9263 6.775 12.8375 7.77437C13.7907 8.27437 14.3525 8.93375 14.5082 9.7425C14.5232 9.87812 14.6782 11.5006 13.9638 13.9781L12.3875 11.7281C12.3371 11.6562 12.2639 11.6034 12.1797 11.5783C12.0956 11.5531 12.0054 11.557 11.9238 11.5894C11.9069 11.5962 10.2363 12.2575 8.71065 12.2694C7.22878 12.2575 5.55315 11.5962 5.53628 11.5894C5.45462 11.5571 5.36449 11.5533 5.28037 11.5784C5.19626 11.6036 5.12305 11.6563 5.07253 11.7281L3.50003 13.9744C2.75753 11.3244 2.9919 9.28562 2.99628 9.25ZM3.80503 14.8975L5.53815 12.4219C6.11628 12.6244 7.45628 13.04 8.75441 13.05C10.0138 13.04 11.3444 12.625 11.9207 12.4219L13.6819 14.9375C13.586 16.1845 13.0216 17.349 12.1022 18.197C11.1828 19.0449 9.97652 19.5135 8.72581 19.5084C7.4751 19.5033 6.27265 19.025 5.36015 18.1697C4.44765 17.3143 3.89272 16.1453 3.8069 14.8975H3.80503ZM23.2213 7.51687C26.4175 7.51687 28.7375 9.615 28.7375 12.505C28.7375 13.0675 28.5444 13.63 28.3338 14.1725C26.8963 13.7394 24.2088 12.6419 23.6207 10.3806C23.5989 10.2975 23.5504 10.2239 23.4826 10.1711C23.4149 10.1183 23.3316 10.0894 23.2457 10.0887H23.2238C23.138 10.0894 23.0547 10.1182 22.9869 10.1709C22.9192 10.2235 22.8706 10.297 22.8488 10.38C22.2632 12.6256 19.5638 13.7281 18.1169 14.1656C17.92 13.63 17.7544 13.0694 17.7544 12.505C17.75 9.615 20.0507 7.51687 23.2213 7.51687ZM23.2213 19.5487C21.9656 19.5462 20.7577 19.0674 19.8413 18.209C18.9249 17.3506 18.3683 16.1765 18.2838 14.9237C19.8675 14.4575 22.2038 13.4706 23.2332 11.52C24.26 13.4831 26.5857 14.4669 28.1625 14.93C28.0763 16.1823 27.5185 17.3553 26.6014 18.2124C25.6844 19.0696 24.4765 19.5471 23.2213 19.5487ZM29.4144 17.0975C29.1488 16.73 29.1438 16.2 29.1982 15.8075H29.2138C29.6113 15.8075 30.1663 15.8925 30.5532 16.2944C30.8538 16.6069 31.0332 17.0825 31.09 17.7112C30.2582 17.6912 29.6944 17.4856 29.4144 17.0975Z" fill="#D9C9AE"/>
</svg>
