<svg width="20" height="20" viewBox="0 0 20 20" fill="none" xmlns="http://www.w3.org/2000/svg">
<path d="M3.68066 12.9657C4.59847 12.9608 5.48123 12.6302 6.15585 12.0388L12.7214 15.6068C12.6378 15.8822 12.5954 16.1674 12.5955 16.454C12.5888 17.2628 12.8755 18.0491 13.4075 18.6806C13.9395 19.312 14.6841 19.75 15.5161 19.9207C16.3481 20.0915 17.2166 19.9846 17.9754 19.618C18.7342 19.2515 19.3369 18.6477 19.682 17.9084C20.0271 17.169 20.0936 16.3392 19.8703 15.5587C19.6469 14.7782 19.1474 14.0947 18.4558 13.6232C17.7642 13.1517 16.9227 12.9211 16.0731 12.9702C15.2235 13.0192 14.4176 13.345 13.7912 13.8926L7.22564 10.3246C7.30487 10.079 7.34724 9.82401 7.35149 9.56716L13.8017 6.05897C14.4247 6.59401 15.2224 6.90919 16.061 6.95166C16.8996 6.99413 17.728 6.76131 18.4074 6.29223C19.0868 5.82316 19.5758 5.14636 19.7923 4.37535C20.0089 3.60434 19.9399 2.78602 19.5969 2.05761C19.2539 1.32921 18.6578 0.735026 17.9085 0.374724C17.1592 0.0144224 16.3023 -0.0900891 15.4815 0.0787181C14.6608 0.247525 13.926 0.679384 13.4006 1.30187C12.8751 1.92435 12.5909 2.6996 12.5955 3.49759C12.5991 3.78393 12.6414 4.06865 12.7214 4.34474L6.75367 7.58384C6.40789 7.0755 5.92886 6.66142 5.36367 6.38228C4.79848 6.10315 4.16658 5.96857 3.53008 5.99178C2.89359 6.01499 2.2744 6.19518 1.73338 6.51465C1.19236 6.83412 0.748127 7.28186 0.44435 7.81388C0.140574 8.3459 -0.012294 8.94387 0.000772624 9.54903C0.0138392 10.1542 0.19239 10.7457 0.518876 11.2654C0.845362 11.7852 1.30855 12.2152 1.8629 12.5133C2.41726 12.8114 3.0437 12.9673 3.68066 12.9657ZM16.2664 14.959C16.5775 14.959 16.8817 15.0467 17.1404 15.211C17.3991 15.3752 17.6007 15.6087 17.7198 15.8819C17.8389 16.1551 17.87 16.4556 17.8093 16.7456C17.7486 17.0356 17.5988 17.302 17.3788 17.5111C17.1588 17.7202 16.8784 17.8625 16.5733 17.9202C16.2681 17.9779 15.9518 17.9483 15.6643 17.8352C15.3768 17.722 15.1311 17.5304 14.9583 17.2845C14.7854 17.0387 14.6931 16.7497 14.6931 16.454C14.6931 16.0575 14.8589 15.6772 15.1539 15.3969C15.449 15.1165 15.8491 14.959 16.2664 14.959ZM16.2664 2.00262C16.5775 2.00262 16.8817 2.0903 17.1404 2.25457C17.3991 2.41884 17.6007 2.65232 17.7198 2.92549C17.8389 3.19866 17.87 3.49925 17.8093 3.78924C17.7486 4.07924 17.5988 4.34561 17.3788 4.55469C17.1588 4.76377 16.8784 4.90615 16.5733 4.96383C16.2681 5.02151 15.9518 4.99191 15.6643 4.87876C15.3768 4.76561 15.1311 4.57399 14.9583 4.32815C14.7854 4.0823 14.6931 3.79326 14.6931 3.49759C14.6931 3.1011 14.8589 2.72085 15.1539 2.44048C15.449 2.16012 15.8491 2.00262 16.2664 2.00262ZM3.68066 7.98249C3.99182 7.98249 4.29598 8.07017 4.55469 8.23444C4.81341 8.39871 5.01505 8.63219 5.13412 8.90536C5.2532 9.17853 5.28435 9.47912 5.22365 9.76912C5.16294 10.0591 5.01311 10.3255 4.79309 10.5346C4.57308 10.7436 4.29276 10.886 3.98758 10.9437C3.68241 11.0014 3.36609 10.9718 3.07862 10.8586C2.79116 10.7455 2.54545 10.5539 2.37259 10.308C2.19972 10.0622 2.10745 9.77314 2.10745 9.47746C2.10745 9.08097 2.2732 8.70072 2.56824 8.42036C2.86327 8.14 3.26342 7.98249 3.68066 7.98249Z" fill="white"/>
</svg>
