<svg width="21" height="21" viewBox="0 0 21 21" fill="none" xmlns="http://www.w3.org/2000/svg">
    <path d="M0 10.5C0 4.70101 4.70101 0 10.5 0C16.299 0 21 4.70101 21 10.5C21 16.299 16.299 21 10.5 21C4.70101 21 0 16.299 0 10.5Z" fill="white"/>
    <path d="M10.5481 8.2479L10.5737 8.66421L10.147 8.61323C8.59359 8.41782 7.23649 7.75513 6.08424 6.64214L5.52092 6.08989L5.37582 6.49771C5.06856 7.40679 5.26486 8.36685 5.905 9.01255C6.24641 9.36938 6.16959 9.42036 5.58067 9.20796C5.37582 9.13999 5.19658 9.08901 5.17951 9.1145C5.11977 9.17397 5.32461 9.94712 5.48678 10.253C5.70869 10.6778 6.16106 11.0941 6.6561 11.3405L7.07432 11.5359L6.57928 11.5444C6.10131 11.5444 6.08424 11.5529 6.13545 11.7313C6.30616 12.2835 6.98044 12.8698 7.73153 13.1247L8.26071 13.3031L7.79981 13.5749C7.117 13.9658 6.31469 14.1867 5.51239 14.2037C5.1283 14.2122 4.8125 14.2461 4.8125 14.2716C4.8125 14.3566 5.85379 14.8324 6.45979 15.0193C8.27778 15.5715 10.4372 15.3336 12.0589 14.3906C13.2111 13.7194 14.3634 12.3855 14.9011 11.0941C15.1913 10.4059 15.4815 9.14849 15.4815 8.54526C15.4815 8.15444 15.5071 8.10347 15.9851 7.63618C16.2667 7.36431 16.5313 7.06694 16.5825 6.98198C16.6679 6.82056 16.6593 6.82056 16.224 6.96499C15.4985 7.21987 15.3961 7.18589 15.7546 6.80357C16.0192 6.53169 16.335 6.03892 16.335 5.89448C16.335 5.869 16.207 5.91148 16.0619 5.98794C15.9082 6.0729 15.5668 6.20034 15.3108 6.27681L14.8499 6.42124L14.4317 6.14087C14.2012 5.98794 13.8769 5.81802 13.7062 5.76704C13.2709 5.6481 12.6051 5.66509 12.2125 5.80103C11.1456 6.18335 10.4713 7.1689 10.5481 8.2479Z" fill="black"/>
    </svg>
    